<svg width="16" height="16" viewBox="0 0 16 16" fill="none" xmlns="http://www.w3.org/2000/svg">
<path fill-rule="evenodd" clip-rule="evenodd" d="M8.00065 5.16732C7.26427 5.16732 6.66732 5.76427 6.66732 6.50065C6.66732 7.23703 7.26427 7.83398 8.00065 7.83398C8.73703 7.83398 9.33398 7.23703 9.33398 6.50065C9.33398 5.76427 8.73703 5.16732 8.00065 5.16732ZM5.33398 6.50065C5.33398 5.02789 6.52789 3.83398 8.00065 3.83398C9.47341 3.83398 10.6673 5.02789 10.6673 6.50065C10.6673 7.97341 9.47341 9.16732 8.00065 9.16732C6.52789 9.16732 5.33398 7.97341 5.33398 6.50065Z" fill="#787A80"/>
<path fill-rule="evenodd" clip-rule="evenodd" d="M8.00065 2.16732C5.58762 2.16732 3.66732 4.05802 3.66732 6.34681C3.66732 8.21268 4.78866 10.0972 6.01441 11.5795C6.61615 12.3071 7.2196 12.9099 7.67296 13.3307C7.79424 13.4433 7.90446 13.5426 8.00065 13.6274C8.09684 13.5426 8.20706 13.4433 8.32834 13.3307C8.78171 12.9099 9.38515 12.3071 9.98689 11.5795C11.2126 10.0972 12.334 8.21268 12.334 6.34681C12.334 4.05802 10.4137 2.16732 8.00065 2.16732ZM8.00065 14.5007C7.5881 15.0243 7.58795 15.0242 7.58778 15.0241L7.58612 15.0228L7.58232 15.0198L7.56941 15.0095C7.55846 15.0007 7.54291 14.9881 7.52305 14.9719C7.48334 14.9395 7.42638 14.8925 7.35463 14.8316C7.2112 14.71 7.00834 14.533 6.76584 14.3079C6.28171 13.8585 5.63515 13.2131 4.98689 12.4292C3.71264 10.8883 2.33398 8.69585 2.33398 6.34681C2.33398 3.28267 4.89083 0.833984 8.00065 0.833984C11.1105 0.833984 13.6673 3.28267 13.6673 6.34681C13.6673 8.69585 12.2887 10.8883 11.0144 12.4292C10.3661 13.2131 9.7196 13.8585 9.23546 14.3079C8.99296 14.533 8.7901 14.71 8.64667 14.8316C8.57492 14.8925 8.51796 14.9395 8.47825 14.9719C8.45839 14.9881 8.44284 15.0007 8.4319 15.0095L8.41898 15.0198L8.41518 15.0228L8.41396 15.0237C8.41379 15.0239 8.4132 15.0243 8.00065 14.5007ZM8.00065 14.5007L8.4132 15.0243C8.17121 15.215 7.82977 15.2147 7.58778 15.0241L8.00065 14.5007Z" fill="#787A80"/>
</svg>
