<svg width="16" height="16" viewBox="0 0 16 16" fill="none" xmlns="http://www.w3.org/2000/svg">
<path d="M8.66602 4.33268C8.66602 3.96449 8.36754 3.66602 7.99935 3.66602C7.63116 3.66602 7.33268 3.96449 7.33268 4.33268V7.99935C7.33268 8.17616 7.40292 8.34573 7.52794 8.47075L9.52794 10.4708C9.78829 10.7311 10.2104 10.7311 10.4708 10.4708C10.7311 10.2104 10.7311 9.78829 10.4708 9.52794L8.66602 7.72321V4.33268Z" fill="#787A80"/>
<path fill-rule="evenodd" clip-rule="evenodd" d="M7.99935 0.666016C3.94926 0.666016 0.666016 3.94926 0.666016 7.99935C0.666016 12.0494 3.94926 15.3327 7.99935 15.3327C12.0494 15.3327 15.3327 12.0494 15.3327 7.99935C15.3327 3.94926 12.0494 0.666016 7.99935 0.666016ZM1.99935 7.99935C1.99935 4.68564 4.68564 1.99935 7.99935 1.99935C11.3131 1.99935 13.9993 4.68564 13.9993 7.99935C13.9993 11.3131 11.3131 13.9993 7.99935 13.9993C4.68564 13.9993 1.99935 11.3131 1.99935 7.99935Z" fill="#787A80"/>
</svg>
