<svg width="48" height="40" viewBox="0 0 48 40" fill="none" xmlns="http://www.w3.org/2000/svg">
<path d="M33.4623 29.0835V19.3531L39.0715 17.0296C43.5808 15.1618 45.7297 9.97369 43.862 5.4644C41.9942 0.955105 36.8061 -1.19402 32.2967 0.673947L1.67353 13.3585L4.20854 17.1438L0 18.887L3.35569 26.9884L9.18442 24.5741L11.7194 28.3592L25.0202 22.8498V29.0835C23.9261 30.1701 23.2473 31.6744 23.2473 33.3344C23.2473 36.6394 25.9362 39.3284 29.2412 39.3284C30.9014 39.3284 32.4058 38.6496 33.4922 37.5554H48V29.1134H33.4923C33.4823 29.1035 33.4723 29.0935 33.4623 29.0835ZM4.87782 23.3137L3.67473 20.4091L5.80454 19.5269L7.58861 22.1909L4.87782 23.3137ZM12.7733 24.8786L5.91929 14.644L33.373 3.27233C36.4497 1.99808 39.9892 3.46414 41.2636 6.54074C42.5379 9.61734 41.0717 13.157 37.9952 14.4313L12.7733 24.8786ZM27.8327 21.6849L30.6497 20.518V27.5095C30.1977 27.4002 29.7264 27.3407 29.2412 27.3407C28.7561 27.3407 28.2847 27.4002 27.8327 27.5095V21.6849ZM29.2413 36.5159C27.4871 36.5159 26.0598 35.0886 26.0598 33.3344C26.0598 31.5801 27.4871 30.1529 29.2413 30.1529C30.9956 30.1529 32.4228 31.5801 32.4228 33.3344C32.4227 35.0887 30.9955 36.5159 29.2413 36.5159ZM35.0664 31.926H45.1876V34.743H35.0663C35.1756 34.291 35.2351 33.8197 35.2351 33.3345C35.2351 32.8494 35.1757 32.3781 35.0664 31.926Z" fill="#FF5A30"/>
</svg>
