<svg width="15" height="13" viewBox="0 0 15 13" fill="none" xmlns="http://www.w3.org/2000/svg">
<path fill-rule="evenodd" clip-rule="evenodd" d="M13.7169 5.71159C13.622 6.36941 13.3969 6.99463 13.0635 7.56957C13.0884 7.71191 13.1013 7.8558 13.1013 8.00031C13.1013 8.50219 12.9558 8.98251 12.6865 9.41891C12.552 9.63674 12.5174 9.89199 12.5041 10.0606C12.4888 10.2539 12.494 10.4654 12.5078 10.6685C12.5233 10.8964 12.5513 11.1357 12.5833 11.3615C12.3232 11.2856 12.0411 11.2094 11.772 11.1487C11.5481 11.0981 11.319 11.0551 11.1115 11.0337C10.9305 11.015 10.669 11.0005 10.4351 11.0761C9.92369 11.2414 9.36097 11.3336 8.76792 11.3336C8.06265 11.3336 7.41492 11.2084 6.84715 10.991C6.71059 10.9972 6.57303 11.0003 6.43457 11.0003C5.6315 11.0003 4.85857 10.8947 4.13542 10.6995C5.18672 11.9154 6.91984 12.667 8.76792 12.667C9.48988 12.667 10.1828 12.5561 10.8214 12.3524C10.8225 12.3525 10.8245 12.3524 10.8276 12.3524C10.844 12.3521 10.8895 12.3512 10.9745 12.3599C11.1082 12.3738 11.2802 12.4046 11.4785 12.4493C11.8735 12.5384 12.3172 12.6698 12.6631 12.7796C13.3965 13.0124 14.1071 12.3724 13.9761 11.6282C13.9197 11.3078 13.861 10.9169 13.838 10.5782C13.8265 10.4079 13.8252 10.2681 13.8333 10.1655C13.8367 10.123 13.841 10.0964 13.8437 10.0822C14.2187 9.46088 14.4346 8.75346 14.4346 8.00031C14.4346 7.15127 14.1709 6.37596 13.7169 5.71159Z" fill="#787A80"/>
<path fill-rule="evenodd" clip-rule="evenodd" d="M2.83265 2.46544C1.93402 3.15264 1.43463 4.05473 1.43463 5C1.43463 5.47136 1.55733 5.92533 1.78755 6.34749C1.87523 6.50828 1.90011 6.67414 1.909 6.78642C1.9187 6.90885 1.91387 7.03468 1.90322 7.15235C1.8819 7.38793 1.83105 7.65485 1.77006 7.91775C1.69871 8.22529 1.60729 8.55326 1.51452 8.8612C1.86669 8.7332 2.2516 8.60203 2.6165 8.49557C2.91141 8.40953 3.20923 8.33488 3.4743 8.29296C3.70264 8.25686 4.03399 8.22137 4.31926 8.32007C4.95948 8.54157 5.67567 8.66667 6.43462 8.66667C7.86607 8.66667 9.13734 8.22222 10.0366 7.53456C10.9352 6.84736 11.4346 5.94527 11.4346 5C11.4346 4.05473 10.9352 3.15264 10.0366 2.46544C9.13734 1.77778 7.86607 1.33333 6.43462 1.33333C5.00318 1.33333 3.73191 1.77778 2.83265 2.46544ZM2.02272 1.4063C3.1744 0.525605 4.73646 0 6.43462 0C8.13279 0 9.69485 0.525605 10.8465 1.4063C11.9988 2.28746 12.768 3.55204 12.768 5C12.768 6.44796 11.9988 7.71254 10.8465 8.5937C9.69485 9.4744 8.13279 10 6.43462 10C5.53925 10 4.68401 9.85404 3.90747 9.58843C3.90669 9.5906 3.84371 9.58445 3.68254 9.60993C3.49677 9.63931 3.25965 9.69685 2.98992 9.77555C2.45294 9.93221 1.84991 10.1538 1.39058 10.3326C0.594831 10.6423 -0.215805 9.87804 0.0523021 9.06396C0.194402 8.63249 0.361993 8.08723 0.47122 7.61642C0.526242 7.37926 0.561948 7.17986 0.57531 7.03219C0.579948 6.98093 0.581146 6.94357 0.580879 6.91831C0.274024 6.33194 0.101292 5.68349 0.101292 5C0.101292 3.55204 0.870428 2.28746 2.02272 1.4063Z" fill="#787A80"/>
</svg>
