<svg width="105" height="34" viewBox="0 0 105 34" fill="none" xmlns="http://www.w3.org/2000/svg">
<path fill-rule="evenodd" clip-rule="evenodd" d="M0.0562721 16.4763L0.112324 32.9526L16.5886 33.0087L33.0649 33.0649V16.5324V0H16.5326H0L0.0562721 16.4763ZM21.8983 8.64869L16.7564 13.7941H10.2407H3.72507V8.64869V3.50327H15.3826H27.0402L21.8983 8.64869ZM78.6074 4.48856C78.6074 5.10886 78.6908 5.2549 79.0453 5.2549C79.4657 5.2549 79.4832 5.40094 79.4832 8.88823C79.4832 12.3372 79.4611 12.5272 79.0453 12.6358C78.7351 12.7171 78.6074 12.9345 78.6074 13.3818V14.0131H80.4685H82.3296V13.3796C82.3296 13.0114 82.1886 12.6921 81.9927 12.6168C81.7177 12.5113 81.6673 12.134 81.719 10.568L81.7823 8.64869L82.5256 8.57775C82.9727 8.53505 83.3423 8.6222 83.4529 8.7967C83.554 8.9561 83.6381 9.85338 83.6401 10.7903C83.6427 12.1051 83.5683 12.5229 83.3149 12.6201C83.1277 12.6919 82.9865 13.0186 82.9865 13.3796V14.0131H84.8476H86.7087V13.3818C86.7087 12.9345 86.5811 12.7171 86.2708 12.6358C85.8782 12.5332 85.8329 12.3372 85.8329 10.7423C85.8329 8.77153 85.4975 7.69449 84.7125 7.1447C84.0675 6.69278 82.793 6.68467 82.1595 7.1285L81.6728 7.46919V5.59582V3.72222H80.1401H78.6074V4.48856ZM36.8274 5.20016C36.8769 5.63128 37.0365 5.82221 37.3893 5.87235C37.8749 5.94133 37.8819 5.98796 37.8819 9.20702V12.4721L37.3345 12.6094C36.9085 12.7164 36.7872 12.8872 36.7872 13.3799V14.0131H38.8672H40.9473V13.3818C40.9473 12.9345 40.8196 12.7171 40.5094 12.6358C40.0958 12.5277 40.0715 12.3372 40.0715 9.21666C40.0715 6.05781 40.0907 5.91176 40.5094 5.91176C40.8501 5.91176 40.9473 5.76572 40.9473 5.2549V4.59804H38.8528H36.758L36.8274 5.20016ZM49.744 5.1833C49.7955 5.63129 49.9509 5.82156 50.3076 5.87235C50.7932 5.94133 50.8002 5.98796 50.8002 9.20702V12.4721L50.2528 12.6094C49.8268 12.7164 49.7055 12.8872 49.7055 13.3799V14.0131H52.3732C55.3545 14.0131 56.5331 13.654 57.3592 12.494C58.3741 11.0686 58.4597 7.70829 57.5164 6.32274C56.5169 4.85466 56.1213 4.71496 52.7395 4.63592L49.6731 4.56432L49.744 5.1833ZM74.6662 6.02124C74.6662 6.64154 74.5828 6.78758 74.2283 6.78758C73.8739 6.78758 73.7904 6.93362 73.7904 7.55392C73.7904 8.17422 73.8739 8.32026 74.2283 8.32026C74.6319 8.32026 74.6671 8.47025 74.6785 10.2361C74.6956 12.8666 74.9745 13.6019 76.1035 13.9923C76.6086 14.167 77.2475 14.2362 77.5814 14.1523C78.076 14.0282 78.1695 13.8859 78.1695 13.257C78.1695 12.6043 78.0931 12.5008 77.5674 12.4401L76.9653 12.3709L76.9022 10.3456L76.8394 8.32026H77.3949C77.884 8.32026 77.9506 8.2283 77.9506 7.55392C77.9506 6.88239 77.8827 6.78758 77.4032 6.78758C76.9237 6.78758 76.8558 6.69277 76.8558 6.02124V5.2549H75.761H74.6662V6.02124ZM29.5617 17.7353V29.3399H24.4162H19.2708V22.8277V16.3156L24.3598 11.2232C27.1586 8.42229 29.4741 6.13072 29.5052 6.13072C29.5363 6.13072 29.5617 11.3528 29.5617 17.7353ZM54.834 6.43792C55.7738 6.83072 56.1359 7.85345 56.0138 9.77083C55.9014 11.5352 55.3556 12.1857 53.8089 12.3976L52.7708 12.5399V9.33533V6.13072H53.4347C53.7999 6.13072 54.4296 6.26888 54.834 6.43792ZM41.3852 7.55392C41.3852 8.17422 41.4686 8.32026 41.8231 8.32026C42.2306 8.32026 42.261 8.4663 42.261 10.4209C42.261 12.3372 42.2227 12.5314 41.8231 12.6358C41.5129 12.7171 41.3852 12.9345 41.3852 13.3818V14.0131H43.2463H45.1074V13.3796C45.1074 13.0114 44.9664 12.6921 44.7705 12.6168C44.4954 12.5113 44.4451 12.134 44.4968 10.568L44.56 8.64869L45.3034 8.57775C45.7505 8.53505 46.1201 8.6222 46.2307 8.7967C46.3318 8.9561 46.4159 9.85338 46.4179 10.7903C46.4205 12.1051 46.346 12.5229 46.0927 12.6201C45.9055 12.6919 45.7643 13.0186 45.7643 13.3796V14.0131H47.6254H49.4865V13.3818C49.4865 12.9345 49.3589 12.7171 49.0486 12.6358C48.656 12.5332 48.6107 12.3372 48.6107 10.7423C48.6107 8.77153 48.2753 7.69449 47.4903 7.1447C46.7778 6.6457 45.5077 6.69146 44.8086 7.24147L44.2316 7.69514V7.24147C44.2316 6.82874 44.1022 6.78758 42.8084 6.78758H41.3852V7.55392ZM60.6532 7.17119C59.7397 7.62749 58.9015 9.12689 58.9015 10.3046C58.9015 13.0201 60.8299 14.6051 63.4267 14.024C64.8396 13.7078 65.1398 13.3937 64.7807 12.6059C64.5985 12.2058 64.4096 12.0696 64.1722 12.1677C63.9828 12.2459 63.4208 12.3597 62.9231 12.4206C62.1992 12.5093 61.9253 12.4388 61.5546 12.0681C61.2997 11.8132 61.0911 11.506 61.0911 11.3856C61.0911 11.2551 61.9303 11.1667 63.1711 11.1667H65.2512L65.2464 10.2361C65.2438 9.72442 65.0592 8.904 64.8363 8.4131C64.156 6.91567 62.2798 6.35843 60.6532 7.17119ZM65.6891 7.55392C65.6891 8.22545 65.757 8.32026 66.2365 8.32026H66.7839V11.7346C66.7839 14.9646 66.7602 15.1549 66.346 15.2633C66.0357 15.3445 65.9081 15.562 65.9081 16.0093V16.6405H67.7692H69.6303V16.0093C69.6303 15.562 69.5026 15.3445 69.1924 15.2633C68.8591 15.1762 68.7545 14.9647 68.7545 14.3787V13.6087L69.4275 13.9445C70.6246 14.5416 72.2877 13.862 72.8349 12.5522C73.219 11.633 73.2192 9.38438 72.8354 8.47747C72.6714 8.08992 72.3342 7.59202 72.0861 7.3711C71.4426 6.79831 69.9903 6.64483 69.3268 7.07967C68.8666 7.38117 68.7786 7.38489 68.6722 7.10769C68.5817 6.8721 68.1721 6.78758 67.1191 6.78758H65.6891V7.55392ZM63.0223 9.14134C63.086 9.59063 63.0039 9.63399 62.0917 9.63399C61.009 9.63399 60.9748 9.60355 61.3245 8.94998C61.6652 8.31348 62.9248 8.45536 63.0223 9.14134ZM70.7312 8.87487C71.1345 9.36095 71.2344 11.1756 70.8934 11.8235C70.5696 12.4388 69.5767 12.6713 69.0698 12.2505C68.6724 11.9207 68.6308 9.18842 69.0172 8.80196C69.387 8.43215 70.3993 8.47506 70.7312 8.87487ZM15.5486 23.4281V29.3399H9.63683H3.72507V23.4281V17.5163H9.63683H15.5486V23.4281ZM75.98 19.6803C75.98 20.1276 76.1076 20.345 76.4179 20.4262C76.8337 20.5348 76.8558 20.7249 76.8558 24.1739C76.8558 27.6611 76.8383 27.8072 76.4179 27.8072C76.0772 27.8072 75.98 27.9532 75.98 28.4641V29.1209H77.9506H79.9211V28.4641C79.9211 27.9532 79.8239 27.8072 79.4832 27.8072C79.06 27.8072 79.0453 27.6611 79.0453 23.4281V19.049H77.5127H75.98V19.6803ZM86.0519 19.8154C86.0519 20.5775 86.0571 20.5817 87.0372 20.5817C88.0172 20.5817 88.0225 20.5775 88.0225 19.8154C88.0225 19.0532 88.0172 19.049 87.0372 19.049C86.0571 19.049 86.0519 19.0532 86.0519 19.8154ZM39.777 19.8064C37.9669 20.4516 36.94 22.0822 36.9446 24.3035C36.9494 26.6053 37.8005 28.1306 39.5241 28.926C40.597 29.4211 42.0072 29.4518 43.0812 29.0031C44.3897 28.4564 44.6695 28.0855 44.6695 26.8974V25.8366H43.9032C43.3148 25.8366 43.1368 25.927 43.1368 26.2257C43.1368 27.0525 42.5054 27.5882 41.531 27.5882C40.4152 27.5882 39.6914 27.1232 39.2819 26.1434C38.6413 24.61 39.0501 22.329 40.0971 21.5957C41.2265 20.8046 43.1368 21.4058 43.1368 22.5523C43.1368 22.9068 43.2829 22.9902 43.9032 22.9902H44.6695V21.9103C44.6695 20.9819 44.585 20.7704 44.0674 20.4026C43.3906 19.9216 41.9913 19.4852 41.1662 19.4977C40.8652 19.5025 40.2401 19.6413 39.777 19.8064ZM81.2349 21.2386C81.2349 22.0268 81.1801 22.1144 80.6875 22.1144C80.208 22.1144 80.1401 22.2092 80.1401 22.8807C80.1401 23.5523 80.208 23.6471 80.6875 23.6471C81.2327 23.6471 81.2349 23.6549 81.2349 25.7168C81.2349 26.8552 81.3443 28.0266 81.4779 28.3202C81.7682 28.9569 82.5282 29.3412 83.4894 29.3366C84.5185 29.3315 84.7664 29.0979 84.6039 28.2854C84.4964 27.7476 84.3508 27.5882 83.9679 27.5882C83.3222 27.5882 83.2055 27.2337 83.2055 25.2713V23.6471H83.8623C84.4671 23.6471 84.5192 23.5862 84.5192 22.8807C84.5192 22.1752 84.4671 22.1144 83.8623 22.1144C83.242 22.1144 83.2055 22.0658 83.2055 21.2386V20.3627H82.2202H81.2349V21.2386ZM47.3013 22.2666C46.0638 22.9085 45.5453 23.898 45.5453 25.6176C45.5453 27.3413 46.0693 28.3373 47.3013 28.9563C48.8244 29.7215 50.6759 29.2383 51.6169 27.8295C52.2298 26.9123 52.3001 24.8719 51.7586 23.7305C51.0115 22.1566 48.8695 21.4529 47.3013 22.2666ZM56.712 22.0507C56.5314 22.1172 56.211 22.3217 56.0004 22.5052C55.6553 22.8058 55.6172 22.803 55.6172 22.4767C55.6172 22.1742 55.3648 22.1144 54.0845 22.1144H52.5519V22.7559C52.5519 23.2547 52.6616 23.4132 53.0445 23.4675C53.5118 23.5341 53.5404 23.6473 53.5998 25.6724C53.6591 27.6944 53.639 27.8072 53.2166 27.8072C52.8672 27.8072 52.7708 27.9493 52.7708 28.4641V29.1209H54.6319H56.493V28.4641C56.493 27.9532 56.3958 27.8072 56.0551 27.8072C55.6525 27.8072 55.6172 27.6611 55.6172 25.9899C55.6172 24.0009 55.788 23.6471 56.7481 23.6471C57.5806 23.6471 57.8068 24.1822 57.8068 26.1506C57.8068 27.6611 57.7682 27.8072 57.3689 27.8072C57.0282 27.8072 56.931 27.9532 56.931 28.4641V29.1209H58.7921H60.6532V28.4897C60.6532 28.0423 60.5255 27.8249 60.2153 27.7437C59.8181 27.6399 59.7774 27.445 59.7774 25.6485C59.7774 24.559 59.6596 23.4093 59.5157 23.0935C59.0922 22.1639 57.756 21.6668 56.712 22.0507ZM62.9522 22.2186C62.4705 22.3986 62.063 22.5472 62.0466 22.549C62.0302 22.5508 61.855 22.8934 61.6571 23.3103C60.9763 24.7449 61.688 25.7525 63.8197 26.3722C64.4606 26.5585 65.0388 26.8519 65.105 27.024C65.4389 27.8941 63.5539 28.0708 63.174 27.2051C63.0133 26.839 62.7742 26.7124 62.2434 26.7124C61.5566 26.7124 61.529 26.7461 61.529 27.5832C61.529 28.651 62.0674 29.0756 63.6607 29.2643C65.6755 29.503 67.2299 28.5416 67.2148 27.066C67.2032 25.9356 66.6061 25.4285 64.5771 24.8259C63.7783 24.5888 63.4996 24.3987 63.4996 24.0913C63.4996 23.1936 65.1277 23.2939 65.4774 24.2133C65.6298 24.6142 65.8411 24.7418 66.3526 24.7418C67.0201 24.7418 67.0263 24.7315 66.9601 23.7035C66.9039 22.8288 66.8021 22.6217 66.314 22.3887C65.3631 21.9351 63.9086 21.8615 62.9522 22.2186ZM93.2774 22.0507C93.0967 22.1172 92.7764 22.3217 92.5658 22.5052C92.2207 22.8058 92.1826 22.803 92.1826 22.4767C92.1826 22.1742 91.9301 22.1144 90.6499 22.1144H89.1172V22.7559C89.1172 23.2547 89.2269 23.4132 89.6099 23.4675C90.0771 23.5341 90.1058 23.6473 90.1651 25.6724C90.2245 27.6944 90.2043 27.8072 89.782 27.8072C89.4325 27.8072 89.3362 27.9493 89.3362 28.4641V29.1209H91.1973H93.0584V28.4641C93.0584 28.0189 92.9498 27.8072 92.7216 27.8072C92.4385 27.8072 92.3952 27.4855 92.448 25.7819L92.511 23.7565L93.1263 23.686C94.1703 23.5663 94.3721 23.9367 94.3721 25.9728C94.3721 27.6611 94.3373 27.8072 93.9342 27.8072C93.5935 27.8072 93.4963 27.9532 93.4963 28.4641V29.1209H95.4669H97.4375V28.4641C97.4375 27.9532 97.3403 27.8072 96.9996 27.8072C96.6031 27.8072 96.5617 27.6611 96.5617 26.262C96.5617 24.0004 96.2074 22.8159 95.3804 22.3117C94.7152 21.9062 93.9344 21.8092 93.2774 22.0507ZM99.3546 22.239C98.035 22.9549 97.418 25.8506 98.1907 27.6999C98.7674 29.0802 100.667 29.7701 101.768 28.999C102.181 28.7095 102.254 28.706 102.254 28.9749C102.254 29.4645 101.537 30.2323 101.05 30.2643C100.809 30.2801 100.247 30.2225 99.7996 30.1364C99.0183 29.986 98.9796 30.0079 98.7968 30.7C98.619 31.3726 98.6509 31.4368 99.2811 31.677C100.976 32.3231 103.035 31.8359 103.781 30.612C104.181 29.9571 104.224 29.5126 104.224 26.0008L104.225 22.1144H103.367C102.896 22.1144 102.471 22.2315 102.423 22.3745C102.362 22.5589 102.183 22.5271 101.809 22.265C101.164 21.8133 100.159 21.8028 99.3546 22.239ZM67.6597 22.7456C67.6597 23.1822 67.7882 23.4106 68.0764 23.4859C68.4449 23.5823 68.5016 23.8527 68.569 25.8289C68.6441 28.036 68.6535 28.0704 69.3601 28.7014C70.1775 29.4312 71.1192 29.5312 72.1439 28.997C72.5649 28.7774 72.8237 28.7391 72.8737 28.8888C72.9166 29.0174 73.5286 29.1209 74.2465 29.1209C75.5285 29.1209 75.5421 29.1143 75.5421 28.4897C75.5421 28.0423 75.4144 27.8249 75.1042 27.7437C74.6956 27.6368 74.6662 27.445 74.6662 24.8719V22.1144H73.243C71.8205 22.1144 71.8198 22.1146 71.8198 22.7456C71.8198 23.1929 71.9475 23.4104 72.2577 23.4916C72.649 23.5939 72.6957 23.7903 72.6957 25.3343C72.6957 27.2298 72.5157 27.5882 71.5648 27.5882C70.6863 27.5882 70.5061 27.0503 70.5061 24.4279V22.1144H69.0829C67.6604 22.1144 67.6597 22.1146 67.6597 22.7456ZM84.9571 22.7559C84.9571 23.2547 85.0668 23.4132 85.4497 23.4675C85.917 23.5341 85.9457 23.6473 86.005 25.6724C86.0643 27.6944 86.0442 27.8072 85.6218 27.8072C85.2724 27.8072 85.176 27.9493 85.176 28.4641V29.1209H87.1466C89.1078 29.1209 89.1172 29.1183 89.1172 28.5681C89.1172 28.1799 88.9543 27.9532 88.5698 27.8072C88.0262 27.6005 88.0225 27.5804 88.0225 24.8568V22.1144H86.4898H84.9571V22.7559ZM49.7116 23.9827C50.1158 24.4699 50.2147 26.2839 49.8725 26.9314C49.6494 27.3531 49.4101 27.4788 48.8296 27.4788C47.8621 27.4788 47.4629 26.7974 47.5834 25.3512C47.6867 24.1084 48.0241 23.6471 48.8296 23.6471C49.1614 23.6471 49.5583 23.7981 49.7116 23.9827ZM101.831 23.8737C102.186 24.0635 102.254 24.3411 102.254 25.5815C102.254 27.2092 102.045 27.5882 101.143 27.5882C100.181 27.5882 99.6691 26.5197 99.9399 25.076C100.176 23.8205 100.887 23.3683 101.831 23.8737Z" fill="#B0B0B0"/>
</svg>
