<svg width="107" height="17" viewBox="0 0 107 17" fill="none" xmlns="http://www.w3.org/2000/svg">
<path fill-rule="evenodd" clip-rule="evenodd" d="M0.0209422 1.25106V2.50212L7.96212 3.73553C12.3299 4.41412 16.0885 5.02306 16.3151 5.08871C16.6896 5.19742 16.7268 4.97294 16.7268 2.604V0H8.37388H0.0209422V1.25106ZM42.5278 3.55624C41.0287 3.78753 39.6854 4.70377 39.0311 5.94141C38.6212 6.71671 38.5012 7.33741 38.4969 8.70588C38.4906 10.8111 38.9774 11.9595 40.3365 13.0438C41.1626 13.7028 41.4165 13.7715 43.2896 13.8452C44.4169 13.8894 45.7838 13.8059 46.3271 13.6598L47.3151 13.3936V10.5791V7.76471H45.0798H42.8445V8.94118V10.1176H43.668C44.4261 10.1176 44.4915 10.1736 44.4915 10.8235C44.4915 11.4146 44.3984 11.5294 43.9186 11.5294C42.4165 11.5294 41.4327 10.4772 41.4327 8.87035C41.4327 6.3513 43.0113 5.40188 45.8059 6.24047C46.2186 6.36424 46.3591 6.22471 46.6882 5.36235C47.1958 4.03365 47.2054 4.07482 46.3151 3.80376C45.1532 3.45011 43.7915 3.36118 42.5278 3.55624ZM21.4327 8.70588V13.8824H22.9621H24.4915V11.7647V9.64706H25.9033H27.3151V11.7647V13.8824H28.8445H30.3739V8.70588V3.52941H28.8445H27.3151V5.41176V7.29412H25.9033H24.4915V5.41176V3.52941H22.9621H21.4327V8.70588ZM33.4327 8.70588V13.8824H34.8445H36.2562V8.70588V3.52941H34.8445H33.4327V8.70588ZM50.2438 3.82988C50.1805 3.99506 50.1572 6.29812 50.1925 8.94753L50.2562 13.7647L51.7268 13.8348L53.1974 13.9047V11.776V9.64706H54.7268H56.2562V11.7647V13.8824H57.668H59.0798V8.70588V3.52941H57.668H56.2562V5.41176V7.29412H54.7268H53.1974V5.41176V3.52941H51.7784C50.844 3.52941 50.3198 3.632 50.2438 3.82988ZM62.1386 8.70588V13.8824H65.1974H68.2562V12.5882V11.2941H66.7268H65.1974V10.4706V9.64706H66.6092H68.0209V8.47059V7.29412H66.6092H65.1974V6.58824V5.88235H66.7268H68.2562V4.70588V3.52941H65.1974H62.1386V8.70588ZM70.7144 3.82988C70.6511 3.99506 70.6278 6.29812 70.6631 8.94753L70.7268 13.7647L72.1974 13.8348L73.668 13.9047V12.0113C73.668 10.9696 73.7638 10.1176 73.8809 10.1176C73.9981 10.1176 74.5904 10.9647 75.1974 12L76.3009 13.8824H77.9527H79.6045L79.1838 13.2353C78.9525 12.8795 78.2871 11.8696 77.7049 10.9915C76.6631 9.41953 76.6539 9.38941 77.1292 9.05671C77.8257 8.56894 78.4174 6.94235 78.2409 6.00164C78.0553 5.01129 77.1096 4.116 75.9033 3.788C74.5461 3.41882 70.8607 3.44871 70.7144 3.82988ZM85.1974 8.70588V13.8824H86.6092H88.0209V12V10.1176H89.5504H91.0798V8.94118V7.76471H89.5504H88.0209V6.82353V5.88235H89.668H91.3151V4.70588V3.52941H88.2562H85.1974V8.70588ZM93.668 8.70588V13.8824H95.0798H96.4915V8.70588V3.52941H95.0798H93.668V8.70588ZM98.2332 3.85764C98.164 4.03812 98.1407 4.59388 98.1816 5.09294L98.2562 6L99.4915 6.07106L100.727 6.14236V10.0122V13.8824H102.139H103.55V10.0122V6.14236L104.786 6.07106L106.021 6L106.092 4.76471L106.163 3.52941H102.261C99.1405 3.52941 98.3339 3.59506 98.2332 3.85764ZM75.0772 6.23224C75.4365 6.66518 75.1958 7.76471 74.7416 7.76471C74.5605 7.76471 74.2449 7.82894 74.0402 7.90753C73.7339 8.02494 73.668 7.85812 73.668 6.96635C73.668 5.98188 73.7193 5.88235 74.2275 5.88235C74.5351 5.88235 74.9174 6.03976 75.0772 6.23224ZM0.0209422 8.23529V10.1176H8.37388H16.7268V8.23529V6.35294H8.37388H0.0209422V8.23529ZM8.18706 12.6609L0 13.9711L0.0694113 15.2795L0.138589 16.5882L8.43271 16.6501L16.7268 16.712V14.0031C16.7268 12.5132 16.6473 11.3068 16.5504 11.3224C16.4534 11.3379 12.6899 11.9402 8.18706 12.6609Z" fill="#C2C2C2"/>
</svg>
