<svg width="80" height="28" viewBox="0 0 80 28" fill="none" xmlns="http://www.w3.org/2000/svg">
<path fill-rule="evenodd" clip-rule="evenodd" d="M3.55556 1V2H1.77778H0V3.11111V4.22222H1.77778H3.55556V16.1111V28H5.33333H7.11111V16.1111V4.22222H16.8889H26.6667V3.11111V2H16.8889H7.11111V1V0H5.33333H3.55556V1ZM8.88889 8.77778V12.2222H17H25.1111V8.77778V5.33333H17H8.88889V8.77778ZM60.4444 11.5556C60.4444 12.9629 60.4867 13.1111 60.8889 13.1111C61.3209 13.1111 61.3333 13.2593 61.3333 18.4444C61.3333 23.6296 61.3209 23.7778 60.8889 23.7778C60.4867 23.7778 60.4444 23.926 60.4444 25.3333V26.8889H63.7778H67.1111V25.3333V23.7778H66.4444H65.7778V16.8889V10H63.1111H60.4444V11.5556ZM34.5556 11.3158C32.3607 12.3453 31.2551 14.4502 31.7507 16.6558C32.2278 18.7796 33.3753 19.6882 37.2222 20.988C39.4889 21.7538 39.8996 21.9638 39.9598 22.3884C40.0131 22.764 39.8751 22.9482 39.4042 23.1296C38.0329 23.6582 36.1138 22.8969 35.8562 21.7222L35.7222 21.1111H33.5278H31.3333V24V26.8889H33.4444H35.5556V26.088V25.2873L36.3142 25.9536C37.368 26.8787 38.4989 27.2191 40.4444 27.1976C44.15 27.156 46.4642 25.0409 46.1687 21.9653C45.9718 19.9156 44.4684 18.6791 40.5047 17.3073C39.3769 16.9169 38.2518 16.4091 38.0047 16.1789C36.6573 14.9236 38.648 13.8249 40.3689 14.8742C40.7756 15.1222 41.192 15.6364 41.358 16.0958L41.6449 16.8889H43.7113H45.7778V14V11.1111H43.7778C41.8307 11.1111 41.7778 11.1249 41.7778 11.6296C41.7778 12.4147 41.568 12.4751 40.806 11.91C39.7876 11.1549 38.7953 10.8882 37.0225 10.8938C35.9516 10.8971 35.1589 11.0327 34.5556 11.3158ZM50.5556 15.192C49.3404 15.51 47.3333 16.4091 47.3336 16.6356C47.3336 16.8062 48.2304 19.1907 48.334 19.2958C48.3738 19.3362 48.64 19.2431 48.9253 19.0891C50.5993 18.1851 53.0649 18.1944 53.5529 19.1062C53.9331 19.8164 53.8104 19.9907 53.1667 19.6549C51.8691 18.978 49.5807 19.3791 48.2942 20.5087C46.5007 22.0833 46.3858 24.6138 48.0376 26.156C49.5978 27.6129 52.5056 27.7387 53.9233 26.4107L54.4024 25.962L54.5496 26.4253C54.6873 26.8596 54.8571 26.8889 57.2371 26.8889H59.7778V25.3333V23.7778H59.1111H58.4444V21.1813C58.4444 18.2636 58.0662 17.0607 56.8845 16.2191C55.3798 15.1476 52.5073 14.6816 50.5556 15.192ZM28.2973 15.5413C27.9109 15.7769 27.494 16.1493 27.3711 16.3689C27.1684 16.7311 27.1222 16.7118 26.8716 16.1618C26.598 15.5613 26.5742 15.5556 24.4087 15.5556H22.2222V17.1111C22.2222 18.5184 22.2644 18.6667 22.6667 18.6667C23.0853 18.6667 23.1111 18.8149 23.1111 21.2222C23.1111 23.6296 23.0853 23.7778 22.6667 23.7778C22.2644 23.7778 22.2222 23.926 22.2222 25.3333V26.8889H25.4444H28.6667V25.3333C28.6667 23.8222 28.6509 23.7778 28.1111 23.7778C27.5798 23.7778 27.5556 23.7193 27.5556 22.4333C27.5556 20.2698 28.2982 19.3333 30.0144 19.3333H30.6667V17.2222V15.1111L29.8333 15.112C29.3751 15.1124 28.6838 15.3056 28.2973 15.5413ZM13.0256 15.6976C11.6284 16.1267 9.76822 17.9389 9.38133 19.248C8.48911 22.2678 9.64911 25.2251 12.2547 26.5724C13.1607 27.0409 15.2273 27.2693 16.6327 27.0562C19.5664 26.6113 21.2964 24.736 21.5 21.7796C21.8138 17.224 17.6909 14.2651 13.0256 15.6976ZM71.1204 15.6882C69.632 16.2287 68.7451 17.018 68.0611 18.4111C67.5622 19.4271 67.4456 19.9636 67.4507 21.2222C67.4585 23.1542 67.8262 24.2509 68.8449 25.3784C70.1976 26.8756 71.1049 27.2222 73.6722 27.2222C75.7747 27.2222 75.9869 27.1784 77.45 26.4444C78.3025 26.0167 79.0222 25.5167 79.0493 25.3333C79.0764 25.15 78.7051 24.5533 78.224 24.0073L77.3493 23.0147L76.3353 23.5073C74.9169 24.1964 73.3647 24.1749 72.588 23.4551C72.2647 23.1553 72 22.8078 72 22.6829C72 22.5404 73.3038 22.4329 75.5 22.3944L79 22.3333L79.0707 20.8889C79.192 18.4109 78.4345 16.9076 76.5831 15.9518C75.352 15.3164 72.5202 15.1798 71.1204 15.6882ZM15.8916 18.8122C17.1398 20.0604 16.8071 24 15.4536 24C13.4602 24 13.3831 18.6936 15.3731 18.462C15.456 18.4524 15.6893 18.61 15.8916 18.8122ZM74.7847 19.1882C74.9642 19.4447 75.1111 19.7322 75.1111 19.8273C75.1111 19.9222 74.3989 20 73.5284 20H71.9458L72.2747 19.5C72.9751 18.4351 74.1545 18.2887 74.7847 19.1882ZM53.4398 22.5824C53.922 23.0649 53.7853 23.6038 53.0973 23.9336C51.9218 24.4969 50.8713 23.5456 51.6811 22.6507C52.1542 22.1278 52.954 22.0969 53.4398 22.5824Z" fill="#A6A6A6"/>
</svg>
