<svg width="94" height="37" viewBox="0 0 94 37" fill="none" xmlns="http://www.w3.org/2000/svg">
<path fill-rule="evenodd" clip-rule="evenodd" d="M32.1978 0.549514C28.996 2.23989 28.8414 7.10624 31.9228 9.21515C32.7311 9.76848 33.2323 9.88837 34.7325 9.88756C36.3692 9.88674 36.666 9.79941 37.5993 9.04508C39.0947 7.83643 39.6672 6.71782 39.6672 5.00493C39.6672 2.06521 37.5301 -0.0263312 34.5538 0.000250508C33.7639 0.0073028 32.7983 0.232432 32.1978 0.549514ZM8.99387 13.8895C4.05374 17.8056 0.00626748 21.101 2.89189e-05 21.213C-0.00648088 21.325 1.0869 21.4164 2.42954 21.4164H4.87072V28.8756V36.3347H18.1616H31.4524V28.8853V21.4359L34.0905 21.3584L36.7286 21.2808L27.5935 14.0251C22.5692 10.0346 18.3498 6.76936 18.2172 6.76936C18.0845 6.76936 13.934 9.97354 8.99387 13.8895ZM49.0831 12.6656C47.9103 13.2561 47.1126 14.7186 47.3429 15.856C47.5504 16.8804 48.4067 17.7704 50.0544 18.675C51.622 19.5354 52.0435 20.1128 51.5433 20.7155C50.7182 21.7096 48.8119 20.8536 48.8119 19.489C48.8119 18.9373 47.4749 18.6093 47.2815 19.1133C47.2094 19.3015 47.1885 19.9883 47.2352 20.6396C47.3125 21.7172 47.4172 21.8718 48.405 22.3658L49.49 22.9082L48.3372 22.9915C47.421 23.058 47.1844 23.1792 47.1844 23.5831C47.1844 23.9034 47.4098 24.1231 47.7947 24.1777C48.3896 24.2623 48.4069 24.3589 48.4804 27.9978L48.5561 31.7312L47.8701 31.9919C47.4931 32.1354 47.1844 32.4389 47.1844 32.6662C47.1844 33.0044 47.6049 33.0798 49.49 33.0798C51.5634 33.0798 51.7956 33.0286 51.7956 32.5712C51.7956 32.2232 51.5387 32.0114 50.9818 31.8999C50.1955 31.7426 50.1681 31.6867 50.1681 30.2386C50.1681 28.865 50.2191 28.7399 50.7789 28.7399C51.2295 28.7399 51.5661 29.0728 52.0622 30.0077C52.4322 30.7051 53.1176 31.6816 53.5855 32.1777C54.2755 32.9095 54.6428 33.0798 55.5281 33.0798C56.8857 33.0798 57.2603 32.4462 56.2043 31.936C55.808 31.7448 54.93 30.8741 54.2535 30.0018L53.0235 28.4155L53.7352 27.8033C54.6672 27.0016 55.0505 26.2524 55.0505 25.2317C55.0505 24.1565 54.2728 23.3951 52.7614 22.991L51.5601 22.6696L52.5911 22.2079C55.4039 20.9488 55.0993 17.909 52.0144 16.4497C50.336 15.6555 49.49 14.8375 49.7222 14.2326C50.1507 13.1159 52.0668 13.7829 52.0668 15.0485C52.0668 15.6143 52.1954 15.7203 52.8805 15.7203C53.6753 15.7203 53.6942 15.6891 53.6942 14.3736C53.6942 12.8069 53.3538 12.5124 51.313 12.313C50.4242 12.2262 49.742 12.3342 49.0831 12.6656ZM88.8879 14.8974C87.7614 16.0388 87.5707 16.8053 88.4132 16.8053C88.9155 16.8053 88.9557 16.9862 88.9557 19.2465C88.9557 22.056 89.3558 22.7734 90.9222 22.7715C91.7826 22.7707 93.5709 21.9014 93.5627 21.4883C93.5511 20.9144 93.0514 20.5577 92.5027 20.7318C91.5026 21.0492 91.1256 20.4475 91.1256 18.5353V16.8053H92.2106C93.187 16.8053 93.2955 16.7375 93.2955 16.1272C93.2955 15.5169 93.187 15.4491 92.2106 15.4491C91.1858 15.4491 91.1256 15.4038 91.1256 14.6354C91.1256 13.475 90.1825 13.5854 88.8879 14.8974ZM69.0075 15.4551C68.2545 15.8391 68.0701 15.8587 68.0701 15.5554C68.0701 15.1589 66.585 15.0379 65.4504 15.3422C64.5681 15.579 64.4427 16.4996 65.2435 16.8644C65.8453 17.1387 65.9001 17.3188 65.9001 19.0254C65.9001 20.7619 65.8546 20.9049 65.222 21.1452C64.8068 21.303 64.5439 21.6161 64.5439 21.9521C64.5439 22.458 64.7159 22.5014 66.7223 22.5014C68.4845 22.5014 68.9332 22.417 69.0701 22.0598C69.1773 21.7807 69.0189 21.4517 68.6397 21.1658C68.1183 20.7725 68.0505 20.5015 68.1227 19.0981C68.2016 17.5621 68.242 17.4793 68.9516 17.3977C69.5464 17.3291 69.752 17.456 69.9687 18.0256C70.3588 19.0517 70.2875 20.6526 69.8244 21.2648C69.0197 22.3289 69.2871 22.5307 71.3898 22.4455C73.037 22.3785 73.3688 22.2863 73.4477 21.8718C73.5074 21.5594 73.3457 21.3266 73.008 21.2382C72.5393 21.1156 72.4601 20.8053 72.3589 18.6923C72.2732 16.8978 72.123 16.1527 71.7682 15.7605C71.0911 15.0124 70.0927 14.902 69.0075 15.4551ZM76.0253 15.3021C75.0339 15.7331 74.5799 16.4397 74.5799 17.5504C74.5799 18.417 75.5089 19.4431 76.9532 20.172C77.9332 20.6664 78.1353 21.4164 77.2882 21.4164C76.9776 21.4164 76.538 21.0812 76.2697 20.6399C75.8883 20.0127 75.6849 19.9051 75.2124 20.08C74.5696 20.3176 74.2085 21.111 74.4529 21.7484C75.0063 23.1898 79.2664 23.0249 79.8363 21.5398C80.3248 20.2663 79.6035 18.8003 78.1076 18.0267C77.104 17.5078 76.4354 16.8235 76.6277 16.5121C76.9307 16.022 77.5565 16.2761 77.9579 17.0527C78.4483 18.0007 79.376 17.9212 79.6301 16.9092C79.8552 16.0119 79.5957 15.4865 78.7735 15.1738C77.8323 14.816 77.0596 14.8521 76.0253 15.3021ZM83.434 15.1855C81.8063 15.6731 80.8184 17.1606 80.8184 19.1233C80.8184 21.3207 82.1847 22.7732 84.2507 22.7721C85.7059 22.7715 87.2197 21.9784 87.099 21.2797C86.9726 20.5482 86.9683 20.5465 86.0881 20.8813C85.1965 21.2203 84.2957 21.0576 83.6855 20.4473C82.8188 19.5807 83.1601 19.2755 85.0905 19.1911L86.9214 19.1109L87.0057 18.2375C87.1167 17.0888 86.3279 15.4678 85.506 15.1553C84.746 14.8665 84.4862 14.8703 83.434 15.1855ZM55.2192 15.7881C55.1061 16.2034 55.2165 16.5346 55.5645 16.8246C55.9773 17.1688 56.0945 17.708 56.1734 19.6268C56.2542 21.596 56.3611 22.0685 56.7975 22.3877C57.531 22.924 58.9411 22.8681 59.6751 22.2738C60.2732 21.7894 60.3058 21.7894 60.7902 22.2738C61.2841 22.7677 62.4727 22.9259 63.3011 22.608C63.9089 22.3747 63.8476 21.219 63.217 21.0188C62.543 20.805 62.3821 20.1145 62.3778 17.4156L62.374 15.1779H61.1727C59.386 15.1779 58.4168 16.4104 59.6746 17.0836C60.1514 17.3388 60.2187 17.5995 60.1493 18.924C60.0779 20.2883 59.9976 20.4771 59.4587 20.5536C58.6273 20.6719 58.3054 19.7342 58.3054 17.1945V15.1779H56.8453C55.5609 15.1779 55.3651 15.2514 55.2192 15.7881ZM84.5659 17.418C84.6432 18.0856 84.567 18.1615 83.82 18.1615C82.8747 18.1615 82.8755 18.1631 83.3079 17.2143C83.7161 16.3187 84.4528 16.4378 84.5659 17.418ZM72.6812 23.2969C72.6812 23.5853 72.9253 23.8986 73.2237 23.9932C73.733 24.1549 73.7661 24.4036 73.7661 28.08C73.7661 31.7401 73.7328 31.9948 73.2527 31.9948C72.8233 31.9948 72.4099 32.4768 72.4099 32.9778C72.4099 33.0465 73.3547 33.0671 74.5091 33.0234C76.2553 32.9575 76.6237 32.8644 76.6988 32.4695C76.7663 32.1169 76.6101 31.9948 76.0915 31.9948H75.3936V27.3837V22.7726H74.0374C72.8778 22.7726 72.6812 22.8486 72.6812 23.2969ZM52.5895 24.5723C52.8987 24.9653 53.1518 25.5648 53.1518 25.9044C53.1518 26.6769 51.7145 27.9262 50.8253 27.9262C50.1882 27.9262 50.1681 27.8638 50.1681 25.8919V23.8576H51.0976C51.779 23.8576 52.1777 24.0486 52.5895 24.5723ZM78.2967 25.1574C77.1735 26.3077 77.027 26.8413 77.8348 26.8413C78.3404 26.8413 78.3772 27.0222 78.3772 29.5019C78.3772 32.5935 78.6176 33.1172 80.0543 33.1579C81.1192 33.188 82.4459 32.4733 82.4459 31.8695C82.4459 31.5902 82.131 31.4993 81.2931 31.5367L80.1403 31.588L80.0619 29.2146L79.9835 26.8413H81.0791C81.9937 26.8413 82.1746 26.7517 82.1746 26.2988C82.1746 25.8466 81.9937 25.7563 81.0897 25.7563C80.0649 25.7563 80.0047 25.711 80.0047 24.9426C80.0047 23.8459 79.5173 23.9072 78.2967 25.1574ZM59.7972 26.0633C57.8665 27.0257 57.407 30.7515 59.0203 32.3648C59.4066 32.7508 60.111 33.1395 60.5862 33.2287C61.7593 33.4487 63.7302 32.6569 63.7302 31.9653C63.7302 31.3734 63.6236 31.3452 62.8828 31.7418C62.0189 32.204 60.7704 31.7757 60.1853 30.8163C59.8984 30.3457 59.6632 29.8691 59.6626 29.7571C59.6621 29.6451 60.5027 29.5537 61.531 29.5537C63.3149 29.5537 63.4082 29.5217 63.5761 28.8525C63.9675 27.2931 62.828 25.746 61.3096 25.7747C60.7761 25.7848 60.0956 25.9147 59.7972 26.0633ZM66.4071 26.1659C66.0143 26.3791 65.6216 26.7404 65.5339 26.9687C65.3514 27.444 65.5803 28.1975 65.9069 28.1975C66.0279 28.1975 66.3111 28.268 66.5359 28.3545C66.8313 28.4676 66.9694 28.2981 67.0328 27.7442C67.1565 26.6649 68.2293 26.5114 68.612 27.5183C69.0609 28.6987 68.9437 28.9323 67.8129 29.1132C66.3414 29.3483 65.3319 30.2676 65.2996 31.4008C65.2855 31.9013 65.471 32.4956 65.7184 32.7432C66.285 33.3096 67.9445 33.2775 68.5963 32.6876C69.0343 32.2913 69.1057 32.2883 69.2486 32.6613C69.3566 32.9428 69.7675 33.0798 70.5028 33.0798C71.3928 33.0798 71.5962 32.9849 71.5962 32.5691C71.5962 32.2862 71.354 31.9948 71.0537 31.9162C70.5717 31.7903 70.5112 31.5462 70.5112 29.7324C70.5112 27.6599 70.1961 26.3403 69.6126 25.9695C69.0834 25.6329 67.1722 25.7501 66.4071 26.1659ZM82.7171 26.279C82.7171 26.5662 82.926 26.8418 83.1815 26.8909C83.495 26.9514 84.0153 27.9496 84.7821 29.9622C85.7618 32.5341 85.8703 33.0188 85.5695 33.4867C85.3254 33.8664 84.9239 34.0292 84.2306 34.0292C83.348 34.0292 82.7347 34.4344 82.7212 35.0271C82.7114 35.4689 83.6323 36.0635 84.3269 36.0635C85.5489 36.0635 86.3653 34.9324 87.8954 31.1193C88.6817 29.1598 89.5473 27.3346 89.8185 27.0634C90.7453 26.1366 90.4551 25.7563 88.8201 25.7563C87.5091 25.7563 87.3282 25.8219 87.3282 26.2988C87.3282 26.6001 87.5091 26.8413 87.7351 26.8413C87.9589 26.8413 88.142 26.9281 88.142 27.0341C88.142 27.3862 86.9265 30.3674 86.783 30.3674C86.7055 30.3674 86.4144 29.7265 86.1364 28.9434C85.8584 28.1603 85.5725 27.3669 85.5011 27.1803C85.4298 26.994 85.5676 26.8413 85.8074 26.8413C86.0623 26.8413 86.2433 26.6161 86.2433 26.2988C86.2433 25.8119 86.0623 25.7563 84.4802 25.7563C82.9203 25.7563 82.7171 25.8165 82.7171 26.279ZM61.7816 27.7228C61.8627 28.4275 61.8071 28.4687 60.7731 28.4687C59.8471 28.4687 59.7047 28.3957 59.8479 27.994C60.3416 26.6088 61.6327 26.4276 61.7816 27.7228ZM68.8838 30.6473C68.8838 31.2522 68.7224 31.5299 68.2735 31.6968C66.9859 32.1752 66.4507 31.0436 67.5881 30.2472C68.5032 29.606 68.8838 29.7237 68.8838 30.6473Z" fill="#A6A6A6"/>
</svg>
