<svg width="116" height="28" viewBox="0 0 116 28" fill="none" xmlns="http://www.w3.org/2000/svg">
<path fill-rule="evenodd" clip-rule="evenodd" d="M10.3907 0.354624C5.43544 1.69114 1.51027 5.68543 0.298551 10.6245C-0.0995172 12.2475 -0.0995172 15.6835 0.298551 17.3065C1.53001 22.3261 5.61837 26.4068 10.6541 27.6427C12.3181 28.051 15.617 28.052 17.2769 27.6446C22.34 26.4018 26.4062 22.3322 27.6511 17.262C28.0637 15.5809 28.0637 12.3501 27.6511 10.669C26.4098 5.61334 22.3378 1.52815 17.3103 0.29483C15.609 -0.122425 12.0452 -0.0916894 10.3907 0.354624ZM32.2241 13.8724V19.74H33.3382H34.4524L34.5025 15.6422L34.5526 11.5443L36.8603 15.6422L39.1679 19.74H40.7255H42.283V13.8724V8.00473H41.0569H39.8308L39.8927 12.2717L39.9545 16.5387L39.079 15.0193C38.5975 14.1836 37.5078 12.2656 36.6575 10.7571L35.1114 8.01442L33.6678 8.00958L32.2241 8.00473V13.8724ZM45.6771 13.7561C44.5276 16.9195 43.5869 19.5599 43.5869 19.6238C43.5869 19.6877 44.1677 19.74 44.8774 19.74H46.1679L46.5302 18.7621C46.7293 18.2243 46.9506 17.5956 47.0218 17.365C47.146 16.9627 47.2356 16.9459 49.2619 16.9459H51.3726L51.8821 18.343L52.3917 19.74H53.6906C54.6507 19.74 54.9675 19.6793 54.9049 19.5072C54.8584 19.3792 53.9065 16.7399 52.7894 13.6423L50.7585 8.01051L49.2629 8.00753L47.7674 8.00473L45.6771 13.7561ZM54.2045 9.02924V10.0538H56.0673H57.93V14.8969V19.74H59.2339H60.5379V14.8969V10.0538H62.4006H64.2634V9.02924V8.00473H59.2339H54.2045V9.02924ZM65.1947 13.8724V19.74H66.4986H67.8026V13.8724V8.00473H66.4986H65.1947V13.8724ZM72.8782 8.35493C70.5255 9.16765 69.567 10.8249 69.5793 14.0587C69.5876 16.2995 70.0138 17.4641 71.2378 18.5926C72.3583 19.6255 73.5588 19.9768 75.695 19.8974C77.1765 19.8423 77.5794 19.7533 78.5106 19.2743C79.7258 18.6496 80.6855 17.4634 81.0485 16.138C81.3693 14.9669 81.3067 12.477 80.9278 11.3363C80.4851 10.0033 79.2238 8.75467 77.8865 8.32549C76.5482 7.89595 74.1663 7.90992 72.8782 8.35493ZM82.8908 13.8724V19.74H84.1115H85.3321L85.2757 15.5738L85.2192 11.4074L87.551 15.5272L89.8826 19.6469L91.4162 19.7009L92.9496 19.7551V13.8798V8.00473H91.8355H90.7214L90.6713 12.2147L90.6212 16.4247L88.2367 12.2147L85.8524 8.00473H84.3715H82.8908V13.8724ZM98.3723 8.42385C98.2864 8.65446 97.5657 10.6452 96.7707 12.8479C95.9758 15.0506 95.0864 17.5025 94.7941 18.2964L94.2629 19.74H95.6115H96.9599L97.423 18.3895L97.8859 17.039L100.04 16.9869L102.194 16.9347L102.634 18.3374L103.074 19.74H104.449C105.206 19.74 105.786 19.6773 105.739 19.6003C105.692 19.5234 104.772 17.0297 103.695 14.0587C102.619 11.0876 101.679 8.50991 101.608 8.33071C101.5 8.05857 101.235 8.00473 100.003 8.00473C98.6446 8.00473 98.5164 8.0377 98.3723 8.42385ZM107.106 13.8724V19.74H111.484H115.861V18.7155V17.691H112.788H109.714V12.8479V8.00473H108.41H107.106V13.8724ZM13.411 10.3972L13.9692 10.81L14.5087 10.4112C15.0878 9.98297 16.4441 9.74696 17.2145 9.94031C17.8259 10.0938 18.9379 11.0725 19.303 11.7787C19.6819 12.5111 19.665 13.7753 19.2661 14.5502C19.0888 14.8945 17.8246 16.3079 16.4566 17.691L13.9692 20.2057L11.4819 17.691C10.1139 16.3079 8.84967 14.8945 8.67234 14.5502C8.27613 13.7807 8.25583 12.5109 8.62819 11.7975C8.9225 11.2342 9.71454 10.4349 10.3369 10.0737C10.9363 9.72554 12.7626 9.91777 13.411 10.3972ZM77.254 10.5476C78.0771 11.1612 78.4631 12.0072 78.5642 13.4194C78.7408 15.8881 77.812 17.5358 76.0992 17.7927C74.7746 17.9915 73.9494 17.7515 73.182 16.9446C71.5223 15.2 71.8568 11.4273 73.7634 10.387C74.6401 9.90864 76.5122 9.9947 77.254 10.5476ZM50.0972 12.7272L50.8261 14.8969H49.3487C48.536 14.8969 47.8712 14.8378 47.8712 14.7656C47.8712 14.5284 49.25 10.4392 49.3098 10.499C49.342 10.531 49.6963 11.5337 50.0972 12.7272ZM101.437 14.5618C101.533 14.8656 101.403 14.8969 100.041 14.8969C99.214 14.8969 98.5379 14.865 98.5379 14.8259C98.5379 14.7615 99.7051 11.4605 99.9617 10.7989C100.05 10.5714 100.682 12.1847 101.437 14.5618Z" fill="#A6A6A6"/>
</svg>
