<svg width="110" height="21" viewBox="0 0 110 21" fill="none" xmlns="http://www.w3.org/2000/svg">
<path fill-rule="evenodd" clip-rule="evenodd" d="M4.07431 4.8498L0 9.69883L1.08412 9.75765L2.16823 9.81647V14.8776V19.9388L3.5898 20.0582C4.37176 20.1237 7.70255 20.3255 10.9918 20.5065L16.9722 20.8355L22.5114 18.5269L28.0506 16.2182V13.3747V10.531L28.8349 10.6565C29.2663 10.7255 29.6169 10.7147 29.6141 10.6325C29.6114 10.5504 27.7602 9.07137 25.5002 7.34588C22.7914 5.27765 21.0894 4.11334 20.5053 3.92902C19.6408 3.65647 19.6192 3.62961 19.6192 2.83138C19.6192 2.07216 19.5651 1.98883 18.8655 1.67334C18.451 1.48647 17.8553 1.36275 17.542 1.39863C17.0645 1.45294 16.9625 1.56255 16.9125 2.0751L16.8531 2.68667L12.6969 1.34294C10.411 0.603729 8.45255 -0.000587806 8.34471 4.29073e-07C8.23686 0.000392586 6.3151 2.18294 4.07431 4.8498ZM31.7761 8.62039C31.7761 8.90804 31.9069 9.01255 32.2663 9.01255H32.7565V12.542V16.0714H32.2663C31.9069 16.0714 31.7761 16.1759 31.7761 16.4635C31.7761 16.8184 31.9069 16.8557 33.1486 16.8557C34.3904 16.8557 34.5212 16.8184 34.5212 16.4635C34.5212 16.1759 34.3904 16.0714 34.031 16.0714C33.549 16.0714 33.5408 16.0453 33.5408 14.5027V12.9341H35.8937H38.2467V14.5027C38.2467 16.0453 38.2384 16.0714 37.7565 16.0714C37.3971 16.0714 37.2663 16.1759 37.2663 16.4635C37.2663 16.8184 37.3971 16.8557 38.6388 16.8557C39.8806 16.8557 40.0114 16.8184 40.0114 16.4635C40.0114 16.1759 39.8806 16.0714 39.5212 16.0714H39.031V12.542V9.01255H39.5212C39.8806 9.01255 40.0114 8.90804 40.0114 8.62039C40.0114 8.26549 39.8806 8.22824 38.6388 8.22824C37.3971 8.22824 37.2663 8.26549 37.2663 8.62039C37.2663 8.90804 37.3971 9.01255 37.7565 9.01255C38.2384 9.01255 38.2467 9.03863 38.2467 10.5812V12.1498H35.8937H33.5408V10.5812C33.5408 9.03863 33.549 9.01255 34.031 9.01255C34.3904 9.01255 34.5212 8.90804 34.5212 8.62039C34.5212 8.26549 34.3904 8.22824 33.1486 8.22824C31.9069 8.22824 31.7761 8.26549 31.7761 8.62039ZM43.3539 10.3249C42.9071 11.4904 42.2276 13.2602 41.8443 14.2576C41.4257 15.3469 41.0378 16.0714 40.8735 16.0714C40.7229 16.0714 40.5996 16.2478 40.5996 16.4635C40.5996 16.8082 40.7304 16.8557 41.678 16.8557C42.6257 16.8557 42.7565 16.8082 42.7565 16.4635C42.7565 16.2457 42.6257 16.0714 42.4624 16.0714C42.1014 16.0714 42.1014 16.0833 42.4649 15.2129L42.7618 14.5027H44.5337H46.3059L46.59 15.1827C46.9429 16.0274 46.9425 16.0714 46.58 16.0714C46.4167 16.0714 46.2859 16.2457 46.2859 16.4635C46.2859 16.8082 46.4167 16.8557 47.3643 16.8557C48.312 16.8557 48.4427 16.8082 48.4427 16.4635C48.4427 16.2478 48.318 16.0714 48.1657 16.0714C48.0022 16.0714 47.6688 15.4898 47.351 14.6498C44.9927 8.41745 44.9529 8.32647 44.5592 8.26608C44.2261 8.2151 44.0437 8.52647 43.3539 10.3249ZM49.2271 8.62039C49.2271 8.88177 49.3578 9.01255 49.6192 9.01255C49.9969 9.01255 50.0114 9.14334 50.0114 12.542C50.0114 15.9406 49.9969 16.0714 49.6192 16.0714C49.3578 16.0714 49.2271 16.2022 49.2271 16.4635C49.2271 16.8186 49.3578 16.8557 50.6139 16.8557C51.829 16.8557 51.9927 16.8131 51.9355 16.5126C51.8996 16.3239 51.6725 16.1412 51.431 16.1067C51.0243 16.0488 50.9918 15.9431 50.9918 14.6851V13.3263H52.4333C53.6102 13.3263 53.9972 13.2439 54.5412 12.8778C55.8 12.0308 55.9845 10.1369 54.9084 9.10589C54.239 8.46451 53.2522 8.24824 50.9427 8.23687C49.3549 8.22883 49.2271 8.25745 49.2271 8.62039ZM56.482 8.59628C56.482 8.90961 56.6031 9.01255 56.9722 9.01255H57.4623V12.542V16.0714H56.9722C56.6127 16.0714 56.482 16.1759 56.482 16.4635C56.482 16.8184 56.6127 16.8557 57.8545 16.8557C59.0963 16.8557 59.2271 16.8184 59.2271 16.4635C59.2271 16.1759 59.0963 16.0714 58.7369 16.0714C58.2606 16.0714 58.2467 16.0322 58.2467 14.6988V13.3263H59.7361C61.3972 13.3263 62.1027 13.0376 62.6318 12.142C63.3157 10.9843 62.8047 9.18334 61.6339 8.62392C61.3233 8.47549 60.1012 8.32451 58.7859 8.27196C56.5392 8.18216 56.482 8.1902 56.482 8.59628ZM63.7369 8.62039C63.7369 8.86098 63.8694 9.01471 64.08 9.01804C64.3116 9.02177 64.8533 9.78647 65.7467 11.3706C66.9682 13.5367 67.0702 13.8073 67.0702 14.8808C67.0702 15.9363 67.0294 16.05 66.631 16.1067C66.3894 16.1412 66.1623 16.3239 66.1265 16.5126C66.0688 16.8151 66.2382 16.8557 67.5604 16.8557C68.8825 16.8557 69.052 16.8151 68.9943 16.5126C68.9584 16.3239 68.7314 16.1412 68.4898 16.1067C68.0914 16.05 68.0506 15.9361 68.0506 14.8833C68.0506 13.8078 68.1474 13.5547 69.3706 11.4353C70.0967 10.1775 70.8467 9.10726 71.0372 9.05745C71.2278 9.00765 71.3839 8.80059 71.3839 8.59745C71.3839 8.27686 71.2288 8.22824 70.2074 8.22824C69.1767 8.22824 69.031 8.2751 69.031 8.60608C69.031 8.81373 69.1592 9.01236 69.3159 9.04726C69.53 9.0949 69.3539 9.5649 68.6082 10.9375C67.4786 13.0163 67.6822 13.052 66.3047 10.5322C65.5394 9.13216 65.5061 9.01255 65.88 9.01255C66.1551 9.01255 66.2859 8.88628 66.2859 8.62039C66.2859 8.26843 66.1551 8.22824 65.0114 8.22824C63.8676 8.22824 63.7369 8.26843 63.7369 8.62039ZM74.9133 8.62039C74.9133 8.88177 75.0441 9.01255 75.3055 9.01255C75.6831 9.01255 75.6976 9.14334 75.6976 12.542C75.6976 15.9406 75.6831 16.0714 75.3055 16.0714C75.0441 16.0714 74.9133 16.2022 74.9133 16.4635C74.9133 16.8186 75.0441 16.8557 76.3002 16.8557C77.5153 16.8557 77.679 16.8131 77.6218 16.5126C77.5859 16.3239 77.3588 16.1412 77.1172 16.1067C76.7045 16.0478 76.678 15.9502 76.678 14.489V12.9341H78.9329H81.1878V14.489C81.1878 15.9502 81.1614 16.0478 80.7486 16.1067C80.5071 16.1412 80.28 16.3239 80.2441 16.5126C80.1869 16.8131 80.3506 16.8557 81.5657 16.8557C82.8218 16.8557 82.9525 16.8186 82.9525 16.4635C82.9525 16.2022 82.8218 16.0714 82.5604 16.0714C82.1827 16.0714 82.1682 15.9406 82.1682 12.542C82.1682 9.14334 82.1827 9.01255 82.5604 9.01255C82.8218 9.01255 82.9525 8.88177 82.9525 8.62039C82.9525 8.26549 82.8218 8.22824 81.58 8.22824C80.3382 8.22824 80.2074 8.26549 80.2074 8.62039C80.2074 8.90804 80.3382 9.01255 80.6976 9.01255C81.1796 9.01255 81.1878 9.03863 81.1878 10.5812V12.1498H78.9329H76.678V10.5812C76.678 9.03863 76.6863 9.01255 77.1682 9.01255C77.5276 9.01255 77.6584 8.90804 77.6584 8.62039C77.6584 8.26549 77.5276 8.22824 76.2859 8.22824C75.0441 8.22824 74.9133 8.26549 74.9133 8.62039ZM85.929 8.55804C84.6704 9.17824 83.9321 10.6453 83.9341 12.5222C83.9355 14.0618 84.2423 14.9982 85.031 15.8712C86.3557 17.3375 88.582 17.3508 90.0318 15.901C91.4637 14.469 91.6186 11.5276 90.3598 9.66687C89.488 8.37785 87.37 7.84785 85.929 8.55804ZM92.1682 8.62039C92.1682 8.88177 92.299 9.01255 92.5604 9.01255C92.938 9.01255 92.9525 9.14334 92.9525 12.542C92.9525 15.9406 92.938 16.0714 92.5604 16.0714C92.299 16.0714 92.1682 16.2022 92.1682 16.4635C92.1682 16.8186 92.299 16.8557 93.5551 16.8557C94.7702 16.8557 94.9339 16.8131 94.8767 16.5126C94.8408 16.3239 94.6137 16.1412 94.3721 16.1067C93.9394 16.0451 93.9331 16.0014 93.9443 13.1655L93.9555 10.2871L94.3992 11.2675C94.6431 11.8067 95.2745 13.2882 95.8022 14.56C96.5882 16.4539 96.8286 16.8616 97.1321 16.8149C97.409 16.7722 97.8467 15.9416 98.8618 13.532C99.6092 11.7578 100.262 10.2653 100.312 10.2151C100.362 10.1647 100.404 11.462 100.404 13.0975V16.0714H99.9133C99.5539 16.0714 99.4231 16.1759 99.4231 16.4635C99.4231 16.8184 99.5539 16.8557 100.796 16.8557C102.037 16.8557 102.168 16.8184 102.168 16.4635C102.168 16.1759 102.037 16.0714 101.678 16.0714H101.188V12.542V9.01255H101.678C102.042 9.01255 102.168 8.90863 102.168 8.6102C102.168 8.24784 102.065 8.21373 101.139 8.26706L100.109 8.32628L98.6535 11.8116C97.8529 13.7286 97.1325 15.2286 97.0527 15.1449C96.9731 15.0614 96.2696 13.471 95.4896 11.6106L94.0714 8.22824H93.1198C92.299 8.22824 92.1682 8.28216 92.1682 8.62039ZM102.756 8.62039C102.756 8.90804 102.887 9.01255 103.247 9.01255H103.737V12.542V16.0714H103.247C102.887 16.0714 102.756 16.1759 102.756 16.4635C102.756 16.8398 102.887 16.8557 105.992 16.8557H109.227V15.8753C109.227 15.0257 109.175 14.8949 108.835 14.8949C108.53 14.8949 108.443 15.0257 108.443 15.4831V16.0714H106.482H104.521V14.4047V12.738H106.286C107.92 12.738 108.051 12.709 108.051 12.3459C108.051 11.9827 107.92 11.9537 106.286 11.9537H104.521V10.4831V9.01255H106.362H108.203L108.332 9.69883C108.427 10.2051 108.561 10.3851 108.844 10.3851C109.178 10.3851 109.227 10.2461 109.227 9.30667V8.22824H105.992C102.887 8.22824 102.756 8.24412 102.756 8.62039ZM53.0002 9.13824C54.3561 9.36235 55.0639 10.5441 54.4892 11.6235C54.0994 12.3553 53.6847 12.5292 52.3153 12.5357L50.9918 12.542V10.7773V9.01255L51.629 9.0147C51.9796 9.01588 52.5967 9.07137 53.0002 9.13824ZM60.5016 9.20373C60.9329 9.30353 61.4404 9.57589 61.629 9.80883C62.1347 10.4331 62.0706 11.481 61.4908 12.0606C61.071 12.4806 60.8333 12.542 59.628 12.542H58.2467V10.7773V9.01255L58.982 9.01725C59.3865 9.0198 60.0702 9.10373 60.5016 9.20373ZM88.8549 9.45628C90.8033 10.7541 90.7627 14.7804 88.791 15.8C86.6833 16.8898 84.8041 15.3437 84.8312 12.542C84.8443 11.1802 85.1516 10.3741 85.9241 9.67471C86.798 8.88373 87.8747 8.80353 88.8549 9.45628ZM44.65 13.6784C43.9061 13.7104 43.2514 13.6904 43.1951 13.6341C43.0953 13.5345 43.9918 10.8671 44.3825 10.0998C44.5465 9.77844 44.6929 10.0316 45.2904 11.6684L46.0027 13.6204L44.65 13.6784ZM22.321 13.9369L22.2663 16.5082L21.0898 16.8751C20.4427 17.0771 19.8912 17.2433 19.8643 17.2449C19.8374 17.2465 19.8153 15.9243 19.8153 14.3067V11.3655H21.0955H22.3757L22.321 13.9369ZM26.678 13.3029V15.2406L25.821 15.4563C25.3496 15.5751 24.8202 15.7273 24.6445 15.7947C24.3606 15.9035 24.3251 15.6637 24.3251 13.6414V11.3655H25.5016H26.678V13.3029ZM9.61921 14.1402V16.1306L7.70745 16.0039C6.65588 15.9343 5.42078 15.8769 4.96235 15.8763L4.12902 15.8753V14.0126V12.1498H6.87412H9.61921V14.1402ZM15.3055 15.6792V19.2086L14.5702 19.2069C14.1659 19.2061 13.3716 19.1496 12.8055 19.0816L11.7761 18.9578V15.5539V12.1498H13.5408H15.3055V15.6792Z" fill="#C2C2C2"/>
</svg>
