<svg width="24" height="37" viewBox="0 0 24 37" fill="none" xmlns="http://www.w3.org/2000/svg">
<path fill-rule="evenodd" clip-rule="evenodd" d="M5.83333 3.33333C4.45262 3.33333 3.33333 4.45262 3.33333 5.83333V31.0938C3.33333 32.4745 4.45262 33.5938 5.83333 33.5938H17.5C18.8807 33.5938 20 32.4745 20 31.0938V5.83333C20 4.45262 18.8807 3.33333 17.5 3.33333H17.361L16.9551 4.30742C16.6963 4.92845 16.0895 5.33296 15.4167 5.33296H7.91667C7.24387 5.33296 6.63706 4.92845 6.37825 4.30742L5.9723 3.33333H5.83333ZM0 5.83333C0 2.61167 2.61167 0 5.83333 0H17.5C20.7217 0 23.3333 2.61167 23.3333 5.83333V31.0938C23.3333 34.3154 20.7217 36.9271 17.5 36.9271H5.83333C2.61167 36.9271 0 34.3154 0 31.0938V5.83333Z" fill="#FF5A30"/>
</svg>
