<svg width="116" height="27" viewBox="0 0 116 27" fill="none" xmlns="http://www.w3.org/2000/svg">
<path fill-rule="evenodd" clip-rule="evenodd" d="M7.35294 0.599398C4.52118 1.34057 2.15373 1.45469 0.833333 0.913514L0 0.571947V1.95293V3.33391L0.735294 3.65841C1.96627 4.20175 4.53412 4.07587 7.64706 3.31959C11.1788 2.46156 12.5024 2.46391 14.6078 3.33136C16.7735 4.22352 18.6437 4.22077 22.3529 3.31959C25.3457 2.59254 27.2927 2.49038 28.5051 2.99704C28.9224 3.17136 29.341 3.31391 29.4357 3.31391C29.5304 3.31391 29.6078 2.71038 29.6078 1.97293C29.6078 0.703514 29.579 0.617829 29.0686 0.371947C28.7722 0.229005 27.6888 0.0729259 26.6616 0.0252789C25.0233 -0.0507996 24.4686 0.0192018 22.1518 0.594692C18.6494 1.4645 16.7212 1.48528 15 0.671357C13.9867 0.192141 13.5378 0.105869 11.7647 0.0492022C9.95823 -0.00844482 9.41745 0.0590061 7.35294 0.599398ZM34.5167 4.15822C33.5382 4.49528 32.8818 5.53803 32.9951 6.57489C33.1157 7.67646 33.5884 8.23371 35.1471 9.11175C36.1912 9.69999 36.4706 9.9541 36.4706 10.3161C36.4706 11.1737 35.0794 11.2443 33.2843 10.4774C32.9837 10.349 32.9412 10.4523 32.9412 11.3129C32.9412 12.2384 32.9769 12.3076 33.5586 12.5104C34.412 12.8078 36.1596 12.78 36.918 12.4568C37.9671 12.0098 38.4643 11.3178 38.48 10.2829C38.4978 9.0994 38.0537 8.51156 36.4598 7.60862C34.9953 6.77901 34.7086 6.43018 35.1018 5.95645C35.3139 5.70077 35.5804 5.64881 36.2669 5.7294C36.7565 5.78685 37.3459 5.89234 37.5771 5.96391C37.9304 6.07313 38.0341 5.98234 38.2282 5.39391C38.3553 5.00901 38.4104 4.61508 38.3506 4.51842C38.2018 4.27763 36.6369 3.89959 35.8445 3.91312C35.4878 3.9192 34.8904 4.02959 34.5167 4.15822ZM40.5882 8.41195V12.7257H43.0392H45.4902V11.8433V10.961H44.0196H42.549V9.98057V9.00018H43.9216H45.2941V8.21587V7.43155H43.9216H42.549V6.5492V5.66685H44.0196H45.4902V4.88253V4.09822H43.0392H40.5882V8.41195ZM47.8431 8.41195V12.7257H48.7431H49.6429L49.5765 9.71214L49.5098 6.69841L50.5561 8.48665C51.1314 9.46999 51.911 10.8263 52.2886 11.5002L52.9749 12.7257H54.2325H55.4902V8.41195V4.09822H54.4855H53.4808L53.5645 7.0394L53.648 9.98057L52.4241 7.87273C49.9761 3.65704 50.3735 4.09822 49.0245 4.09822H47.8431V8.41195ZM57.451 4.88253V5.66685H58.6274H59.8039V9.19626V12.7257H60.7843H61.7647V9.19626V5.66685H62.8431H63.9216V4.88253V4.09822H60.6863H57.451V4.88253ZM65.6863 8.41195V12.7257H66.7647H67.8431V8.41195V4.09822H66.7647H65.6863V8.41195ZM70 8.41195V12.7257H70.8773H71.7545L71.8086 9.74861L71.8627 6.77175L73.5523 9.69959L75.242 12.6276L76.4445 12.6861L77.6471 12.7443V8.42136V4.09822H76.7647H75.8823V6.98724V9.87645L74.1996 6.98724L72.5167 4.09822H71.2584H70V8.41195ZM81.0198 8.16685C80.2396 10.4047 79.6027 12.3504 79.6045 12.4908C79.6069 12.6753 79.8931 12.7298 80.6365 12.6868L81.6649 12.6276L81.9392 11.5982L82.2135 10.5688H83.6504H85.087L85.4006 11.6472L85.7141 12.7257H86.7786C87.3641 12.7257 87.8431 12.6739 87.8431 12.6108C87.8431 12.5153 85.3457 5.36391 84.9751 4.39802C84.889 4.17391 84.5547 4.09822 83.6492 4.09822H82.4384L81.0198 8.16685ZM89.4118 8.41195V12.7257H92.1569H94.902V11.8433V10.961H93.2353H91.5686V7.52959V4.09822H90.4902H89.4118V8.41195ZM7.64706 5.07861C4.5298 5.88861 2.58765 6.02116 1.12745 5.52371L0 5.1394V6.49155V7.84371L0.735294 8.16743C2.00078 8.7243 4.55843 8.60449 7.6449 7.84391C10.9653 7.02547 12.8637 7.05018 14.902 7.93822C16.7174 8.7292 18.9647 8.70293 22.348 7.85116C25.0718 7.16548 27.2012 7.05665 28.5294 7.53528C28.9608 7.69057 29.38 7.8192 29.4608 7.82077C29.5416 7.82234 29.6078 7.2094 29.6078 6.45881V5.09371L28.5918 4.79214C26.9847 4.31489 25.1102 4.41038 22.348 5.11018C18.9345 5.97489 16.7082 5.99842 14.902 5.18881C12.979 4.32685 10.6747 4.29195 7.64706 5.07861ZM84.0996 7.27351C84.6708 8.96508 84.6608 9.00018 83.6065 9.00018C82.8267 9.00018 82.7212 8.95332 82.8349 8.65704C82.9074 8.46842 83.1076 7.80665 83.2802 7.18646C83.4525 6.56626 83.6153 6.059 83.6416 6.059C83.6678 6.059 83.8741 6.60548 84.0996 7.27351ZM9.70588 9.12508C4.89314 10.3651 2.92686 10.5874 1.25667 10.0808C0.727254 9.92018 0.227843 9.78783 0.147059 9.78665C0.0662745 9.78547 0 10.39 0 11.1302V12.4759L1.10333 12.8229C2.55941 13.281 4.59157 13.1372 7.84314 12.3463C11.1445 11.5431 12.4606 11.5502 14.5651 12.3825C16.7935 13.2639 18.8318 13.2614 22.4763 12.3729C25.3271 11.6778 27.1218 11.5774 28.4314 12.0394C28.8898 12.2012 29.3422 12.3335 29.4365 12.3335C29.5308 12.3335 29.6078 11.728 29.6078 10.9878V9.64214L28.5122 9.29743C27.0165 8.82704 24.92 8.97175 21.5686 9.77685C18.3498 10.55 16.8778 10.5306 14.902 9.68842C13.8914 9.25763 13.2622 9.13273 11.8627 9.08469C10.8922 9.05136 9.92157 9.06959 9.70588 9.12508ZM9.80392 13.6412C9.53431 13.6961 8.25706 13.9978 6.96568 14.3117C4.35412 14.9467 2.3449 15.039 1.07843 14.5827C0.647059 14.4274 0.227843 14.2988 0.147059 14.2972C0.0662745 14.2957 0 14.9086 0 15.6592V17.0243L1.01608 17.3259C2.57725 17.7896 4.25961 17.7002 7.13157 17.0008C10.6533 16.1433 12.6767 16.1218 14.6078 16.9214C16.7329 17.801 18.4469 17.8276 21.7647 17.0325C25.26 16.1951 26.9929 16.0865 28.4804 16.6116L29.6078 17.0098V15.6419V14.2743L28.8725 13.9451C27.5918 13.3716 24.88 13.4951 21.7657 14.269C18.498 15.0812 16.751 15.0614 14.7059 14.1892C13.7353 13.7753 13.0573 13.6331 11.8627 13.5935C11 13.5647 10.0735 13.5863 9.80392 13.6412ZM35.4282 14.9706C33.8257 15.5421 33.0857 16.877 33.0857 19.1963C33.0857 21.9425 34.2031 23.3245 36.5429 23.4721C37.2041 23.5139 38.0539 23.4682 38.4314 23.3704C39.0784 23.2029 39.121 23.141 39.1771 22.2837L39.2363 21.3745L38.59 21.56C36.1886 22.2486 34.9802 21.3094 35.1353 18.8749C35.202 17.8276 35.3045 17.5394 35.7933 17.0249C36.3157 16.4755 36.4592 16.4255 37.2549 16.5168C37.7402 16.5725 38.3359 16.6792 38.5788 16.7537C38.9539 16.8688 39.0655 16.7812 39.3204 16.1714C39.4853 15.7765 39.5749 15.38 39.5194 15.2902C39.3704 15.0492 37.782 14.6851 36.9229 14.6951C36.5124 14.6998 35.8398 14.8237 35.4282 14.9706ZM43.2273 15.0551C42.1551 15.5419 41.4506 16.4347 41.1939 17.6316C40.9263 18.8796 40.9267 19.3184 41.1961 20.5747C41.6284 22.5908 43.2459 23.6494 45.6047 23.46C47.7786 23.2855 49.0006 21.9686 49.1669 19.6216C49.3853 16.5351 47.8655 14.6951 45.098 14.6951C44.4702 14.6951 43.6884 14.8455 43.2273 15.0551ZM63.1902 14.9772C62.2674 15.3782 61.7227 16.3474 61.8296 17.3974C61.9363 18.4447 62.5486 19.1284 64.1392 19.9763C65.0529 20.4633 65.2941 20.6894 65.2941 21.059C65.2941 21.3159 65.1918 21.5892 65.0667 21.6667C64.7057 21.8898 63.3912 21.7747 62.6198 21.4525C62.231 21.29 61.8796 21.157 61.8388 21.157C61.798 21.157 61.7647 21.5941 61.7647 22.1282C61.7647 23.0835 61.7769 23.1027 62.5 23.3035C63.5253 23.5884 64.9931 23.56 65.7416 23.2412C66.7906 22.7941 67.2878 22.1021 67.3035 21.0672C67.321 19.9198 66.8871 19.3045 65.4743 18.4727C63.7249 17.4431 63.5961 17.3192 63.8467 16.9084C64.0831 16.5212 65.3063 16.4286 66.3029 16.7225C66.7737 16.8614 66.8429 16.811 67.0522 16.177C67.179 15.7927 67.2339 15.3994 67.1741 15.3027C67.019 15.0518 65.4502 14.6851 64.57 14.6941C64.1594 14.6984 63.5384 14.8257 63.1902 14.9772ZM110.812 14.9792C109.056 15.5272 108.183 16.9251 108.184 19.19C108.185 20.9535 108.581 21.9268 109.646 22.7827C110.246 23.2649 110.6 23.3812 111.709 23.4606C112.445 23.5131 113.554 23.4514 114.171 23.3231L115.294 23.09V20.751V18.4119H113.529H111.765V19.2943V20.1767H112.549H113.333V20.961V21.7453H112.4C110.785 21.7453 109.988 20.5555 110.258 18.5467C110.341 17.9306 110.547 17.5614 111.088 17.0661C111.758 16.4523 111.879 16.4135 112.816 16.5104C113.37 16.5676 114.003 16.6712 114.221 16.7404C114.544 16.8425 114.664 16.7408 114.858 16.2037C115.214 15.2214 115.176 15.1449 114.227 14.9059C113.095 14.6208 111.878 14.6469 110.812 14.9792ZM51.7647 19.1963V23.51H52.6608H53.5571L53.4941 20.4963C53.4486 18.3059 53.4888 17.5694 53.6414 17.8002C53.7569 17.9749 54.5449 19.3312 55.3925 20.8139L56.9339 23.51H58.1727H59.4118V19.1963V14.8825H58.4029H57.3939L57.4992 17.8531L57.6045 20.8237L56.6535 19.1767C56.1304 18.2708 55.3678 16.9361 54.959 16.2106L54.2157 14.8916L52.9902 14.887L51.7647 14.8825V19.1963ZM69.2449 18.2018C69.3198 21.817 69.3902 22.0568 70.6516 22.9986C71.4467 23.5921 73.4074 23.669 74.5757 23.1523C76.1188 22.4696 76.2729 22.0174 76.2737 18.1668L76.2745 14.8825H75.2941H74.3137V17.9218C74.3137 20.6996 74.28 20.9947 73.9216 21.3531C73.661 21.6137 73.268 21.7453 72.7496 21.7453C71.4751 21.7453 71.2878 21.2645 71.2074 17.7839L71.1406 14.8825H70.1582H69.1761L69.2449 18.2018ZM79.0196 19.1963V23.51H81.7647H84.5098V22.6276V21.7453H82.8431H81.1765V18.3139V14.8825H80.098H79.0196V19.1963ZM85.2941 15.6668V16.4512H86.4706H87.6471V19.9806V23.51H88.6274H89.6078V19.9806V16.4512H90.7843H91.9608V15.6668V14.8825H88.6274H85.2941V15.6668ZM93.7255 19.1963V23.51H94.7059H95.6863V19.1963V14.8825H94.7059H93.7255V19.1963ZM98.0392 19.1963V23.51H98.9353H99.8316L99.7686 20.4963C99.7225 18.2796 99.7621 17.5667 99.919 17.8002C100.036 17.9749 100.818 19.3312 101.657 20.8139L103.182 23.51H104.434H105.686V19.1963V14.8825H104.679H103.672L103.767 17.8382L103.862 20.7939L102.919 19.1618C102.401 18.2641 101.642 16.9361 101.234 16.2106L100.49 14.8916L99.2647 14.887L98.0392 14.8825V19.1963ZM46.4106 16.9243C46.9347 17.3753 46.9608 17.478 46.9608 19.0982C46.9608 20.7184 46.9347 20.8212 46.4106 21.2721C45.8208 21.7794 44.7774 21.9023 44.1069 21.5433C43.8992 21.4323 43.5963 21.0837 43.4333 20.7688C43.0869 20.0986 43.0408 18.1827 43.3563 17.5657C43.9553 16.3945 45.4337 16.0841 46.4106 16.9243ZM10 18.1453C9.73039 18.1986 8.39549 18.501 7.03353 18.8172C4.26294 19.4608 2.27 19.5531 0.980392 19.0982C0.521961 18.9365 0.113726 18.8041 0.0733334 18.8041C0.0329413 18.8041 0 19.411 0 20.1529C0 21.4886 0.00607841 21.5043 0.637255 21.7706C1.84235 22.279 5.04784 22.1072 8.03922 21.3739C11.2945 20.5759 12.7759 20.5969 14.6078 21.4667C15.6788 21.9751 15.9774 22.0253 17.9412 22.0265C19.7096 22.0274 20.5616 21.9141 22.6724 21.3963C25.6316 20.6704 27.0208 20.6102 28.5343 21.1421L29.6078 21.5196V20.1517V18.7841L28.8725 18.4594C27.6245 17.9084 24.8808 18.0284 21.8375 18.7672C18.408 19.6 16.9624 19.6039 14.9347 18.7861C13.4443 18.1849 11.2453 17.8994 10 18.1453ZM10.1961 22.6496C9.92647 22.6994 8.55882 23.0141 7.15686 23.3488C4.28039 24.0355 2.34902 24.1237 1.00471 23.6294C0.532941 23.4559 0.113726 23.3139 0.0733334 23.3139C0.0329413 23.3139 0 23.9174 0 24.6549C0 25.9245 0.0288235 26.0098 0.539216 26.2549C0.835882 26.3972 1.87255 26.5523 2.84314 26.5996C4.35843 26.6735 4.98196 26.5943 7.2549 26.0388C10.7978 25.1727 12.6929 25.148 14.5098 25.9439C16.5265 26.8272 18.5876 26.8584 21.9608 26.0563C25.9725 25.1023 27.2071 25.0917 29.3718 25.9919C29.569 26.0741 29.6129 25.7802 29.5678 24.6759L29.5098 23.2541L28.7255 22.9596C27.3406 22.4396 24.9449 22.5604 21.9608 23.3008C18.4769 24.1651 17.1541 24.1692 14.902 23.3231C13.2818 22.7143 11.3437 22.437 10.1961 22.6496Z" fill="#C2C2C2"/>
</svg>
