<svg width="99" height="23" viewBox="0 0 99 23" fill="none" xmlns="http://www.w3.org/2000/svg">
<path fill-rule="evenodd" clip-rule="evenodd" d="M0 7.90196V15.8039H7.90196H15.8039V12.7647V9.72549H14.7908H13.7778V11.7516V13.7778H7.90196H2.02614V7.90196V2.02614H7.90196H13.7778V4.05229V6.07843H14.7908H15.8039V3.03922V0H7.90196H0V7.90196ZM6.88889 9.9281V12.9673H7.90196H8.91503V10.9412V8.91503H14.7908H20.6667V14.7908V20.6667H14.7908H8.91503V18.6405V16.6144H7.90196H6.88889V19.6536V22.6928H14.7908H22.6928V14.7908V6.88889H14.7908H6.88889V9.9281ZM41.6415 8.2304C41.2466 8.62529 41.306 9.09455 41.7892 9.39888C42.2023 9.65903 42.8146 9.3695 42.9137 8.86722C42.9757 8.55235 42.457 7.90196 42.1438 7.90196C42.0484 7.90196 41.8222 8.04987 41.6415 8.2304ZM25.855 8.62773C25.6789 9.08665 25.6771 9.08442 26.2892 9.15493L26.8464 9.21895L26.9485 11.8529C27.0594 14.7072 27.2188 15.2141 28.1593 15.7006C29.076 16.1745 31.2213 16.1082 31.8856 15.5855C32.7597 14.8982 32.904 14.4099 33.0184 11.7516C33.1232 9.31742 33.1453 9.21652 33.5833 9.15412C33.8763 9.11258 34.0392 8.94968 34.0392 8.69823C34.0392 8.3467 33.8858 8.30719 32.5196 8.30719C31.1534 8.30719 31 8.3467 31 8.69823C31 8.94968 31.1629 9.11258 31.4559 9.15412C31.8947 9.21652 31.9138 9.30628 31.9685 11.5634C32.0232 13.8171 32.0058 13.9291 31.5223 14.4507C30.8462 15.1803 29.5785 15.2113 28.8825 14.5153C28.351 13.9838 28.0803 12.3313 28.1989 10.3416C28.2576 9.35349 28.3186 9.22281 28.7702 9.11704C29.0482 9.0518 29.3055 8.8431 29.3422 8.65285C29.4008 8.34893 29.2012 8.30719 27.6933 8.30719C26.3162 8.30719 25.9537 8.37041 25.855 8.62773ZM55.5163 8.69885C55.5163 8.91423 55.6987 9.14824 55.9216 9.21895C56.1953 9.30588 56.3268 9.52551 56.3268 9.89569C56.3268 10.3961 56.2591 10.4438 55.551 10.4438C53.7615 10.4438 52.5341 12.2211 52.9028 14.2784C53.1674 15.7549 54.5503 16.4118 55.9118 15.7077C56.4214 15.4441 56.5035 15.4441 56.6046 15.7077C56.6795 15.9028 57.0031 16.0065 57.5362 16.0065C58.201 16.0065 58.3529 15.9356 58.3529 15.625C58.3529 15.4137 58.172 15.1961 57.9477 15.1373C57.5629 15.0368 57.5425 14.861 57.5425 11.6694V8.30719H56.5294C55.6632 8.30719 55.5163 8.36392 55.5163 8.69885ZM62.0156 8.83176C61.4815 9.28115 61.3922 9.4933 61.3922 10.3135C61.3922 11.4112 61.7666 11.8665 63.5703 12.9633C64.711 13.6568 64.9424 14.2509 64.3157 14.8778C63.6586 15.5346 62.2026 15.038 62.2026 14.1569C62.2026 13.7881 61.8055 13.3725 61.4529 13.3725C61.2734 13.3725 61.1895 13.6815 61.1895 14.3419C61.1895 15.1971 61.2588 15.3523 61.7779 15.6588C62.5776 16.1313 64.1576 16.1101 64.9677 15.6163C65.8053 15.1055 66.173 14.0485 65.8517 13.0751C65.6724 12.5315 65.336 12.2035 64.3671 11.6272C63.6781 11.2173 63.0005 10.7412 62.8611 10.569C62.4441 10.0535 62.555 9.33566 63.0888 9.09252C63.7269 8.80177 64.4314 9.16951 64.4314 9.79336C64.4314 10.3027 64.777 10.7386 65.181 10.7386C65.3618 10.7386 65.4444 10.4229 65.4444 9.73258C65.4444 8.53169 65.1618 8.30719 63.6497 8.30719C62.8579 8.30719 62.5039 8.42085 62.0156 8.83176ZM44.6258 10.0276C43.9252 10.7724 43.771 11.3464 44.2712 11.3464C44.518 11.3464 44.5758 11.6797 44.5782 13.1193C44.5818 15.3545 44.8199 15.8827 45.8616 15.9691C46.7589 16.0434 47.6144 15.5733 47.6144 15.0064C47.6144 14.6628 47.5504 14.6476 46.9901 14.8591C46.0826 15.2016 45.7908 14.7104 45.7908 12.8389V11.3697L46.6501 11.3073C47.277 11.2619 47.5279 11.1493 47.5769 10.8905C47.633 10.5947 47.4906 10.5359 46.7174 10.5359C45.8231 10.5359 45.7908 10.5149 45.7908 9.9281C45.7908 9.13001 45.4424 9.15979 44.6258 10.0276ZM66.9134 10.0711C66.2182 10.8403 66.0683 11.3464 66.5353 11.3464C66.7497 11.3464 66.8346 11.8175 66.896 13.3488C66.947 14.6184 67.0759 15.4712 67.2483 15.6789C67.8436 16.3962 69.902 15.8692 69.902 14.9995C69.902 14.6636 69.8355 14.6486 69.2777 14.8591C68.3684 15.2024 68.0784 14.711 68.0784 12.8273V11.3464H68.9902C69.7668 11.3464 69.902 11.2864 69.902 10.9412C69.902 10.5959 69.7668 10.5359 68.9902 10.5359C68.1123 10.5359 68.0784 10.5135 68.0784 9.9281C68.0784 9.12636 67.7285 9.16931 66.9134 10.0711ZM80.0833 10.0375C79.3835 10.7704 79.2273 11.3464 79.7288 11.3464C79.9755 11.3464 80.0333 11.6797 80.0357 13.1193C80.0394 15.3545 80.2774 15.8827 81.3191 15.9691C82.2165 16.0434 83.0719 15.5733 83.0719 15.0064C83.0719 14.6628 83.0079 14.6476 82.4476 14.8591C81.5401 15.2016 81.2484 14.7104 81.2484 12.8389V11.3697L82.1077 11.3073C82.7345 11.2619 82.9854 11.1493 83.0344 10.8905C83.0905 10.5947 82.9481 10.5359 82.1749 10.5359C81.2806 10.5359 81.2484 10.5149 81.2484 9.9281C81.2484 9.13953 80.9108 9.17114 80.0833 10.0375ZM37.011 10.7213C36.4224 11.0214 36.268 11.0415 36.268 10.818C36.268 10.5201 35.511 10.4458 34.6977 10.6636C34.1326 10.8152 34.1 11.3472 34.6471 11.4903C35.014 11.5863 35.0523 11.7666 35.0523 13.3963C35.0523 15.0609 35.0219 15.1961 34.6471 15.1961C34.377 15.1961 34.2418 15.3312 34.2418 15.6013C34.2418 15.968 34.377 16.0065 35.6601 16.0065C36.4402 16.0065 37.0784 15.9684 37.0784 15.9218C37.0784 15.8752 37.1309 15.7002 37.1951 15.5326C37.2754 15.3241 37.1637 15.2072 36.8406 15.1616C36.3922 15.098 36.3693 15.0162 36.3693 13.4799C36.3693 11.9613 36.3995 11.8499 36.874 11.6132C37.281 11.4104 37.4573 11.4139 37.7858 11.6313C38.1284 11.8582 38.2021 12.1615 38.2516 13.5484C38.3067 15.0911 38.2842 15.1961 37.897 15.1961C37.6188 15.1961 37.4837 15.3284 37.4837 15.6013C37.4837 15.968 37.6188 16.0065 38.902 16.0065C40.1559 16.0065 40.3203 15.9624 40.3203 15.625C40.3203 15.4137 40.1393 15.1961 39.915 15.1373C39.5477 15.0413 39.5098 14.861 39.5098 13.2113C39.5098 11.7678 39.4365 11.3073 39.1552 10.9849C38.626 10.3787 37.8664 10.2853 37.011 10.7213ZM49.522 10.6168C48.1762 11.2127 47.5311 12.9082 48.0569 14.4675C48.5421 15.9071 50.1023 16.4871 51.5814 15.7782C52.2601 15.4528 52.3945 14.8589 51.768 14.9529C50.5744 15.1323 50.1706 15.0451 49.7098 14.5094C48.9204 13.5916 49.0667 13.3985 50.6029 13.3312L51.9706 13.2712L52.0318 12.4336C52.1396 10.9578 50.854 10.027 49.522 10.6168ZM72.6646 10.7534C72.2221 11.1014 72.1307 11.1187 72.1307 10.8547C72.1307 10.6208 71.9281 10.5368 71.3709 10.539C70.9531 10.5408 70.4839 10.6227 70.3283 10.7211C69.979 10.9424 70.1814 11.549 70.6048 11.549C70.8603 11.549 70.915 11.8702 70.915 13.3725C70.915 15.0609 70.885 15.1961 70.5098 15.1961C70.2397 15.1961 70.1046 15.3312 70.1046 15.6013C70.1046 15.9747 70.2397 16.0065 71.8268 16.0065C73.38 16.0065 73.549 15.9691 73.549 15.6238C73.549 15.347 73.3531 15.2044 72.8399 15.1081L72.1307 14.975V13.8136C72.1307 12.3285 72.5086 11.7336 73.408 11.8031C73.9856 11.8475 74.0628 11.7897 74.1224 11.2672C74.2316 10.31 73.5385 10.0657 72.6646 10.7534ZM75.8294 10.5576C74.6221 10.9102 74.1905 12.3595 75.2929 12.3595C75.6321 12.3595 75.7778 12.2452 75.7778 11.979C75.7778 11.7699 75.8991 11.4978 76.0476 11.3746C76.4401 11.049 76.9588 11.502 77.1175 12.3088C77.2392 12.929 77.2127 12.9673 76.6642 12.9681C76.3439 12.9685 75.783 13.1509 75.4181 13.3734C74.027 14.2215 74.1678 15.8475 75.6428 15.9691C76.0778 16.0049 76.6105 15.9058 76.8595 15.7427C77.2338 15.4974 77.3424 15.4953 77.5612 15.7296C77.7034 15.8819 78.1354 16.0065 78.521 16.0065C79.079 16.0065 79.2222 15.9265 79.2222 15.6149C79.2222 15.3995 79.0506 15.1689 78.8409 15.1023C78.5112 14.9977 78.4482 14.721 78.3755 13.0603C78.3175 11.7346 78.2002 11.0522 77.997 10.8579C77.5863 10.4654 76.6089 10.3301 75.8294 10.5576ZM84.9795 10.6168C83.6337 11.2127 82.9886 12.9082 83.5144 14.4675C83.9997 15.9071 85.5598 16.4871 87.0389 15.7782C87.7176 15.4528 87.852 14.8589 87.2255 14.9529C86.0319 15.1323 85.6281 15.0451 85.1673 14.5094C84.3779 13.5916 84.5242 13.3985 86.0605 13.3312L87.4281 13.2712L87.4893 12.4336C87.5971 10.9578 86.3115 10.027 84.9795 10.6168ZM89.8884 10.5586C88.5457 10.9215 87.9468 12.3362 88.7027 13.3586C89.1104 13.9101 89.1108 13.9241 88.7285 14.2515C88.3046 14.6144 88.2471 14.9384 88.5273 15.3811C88.6491 15.5733 88.5702 15.8544 88.287 16.2375C87.9312 16.7185 87.902 16.8881 88.1002 17.3229C88.5407 18.2898 90.3861 18.5433 91.7855 17.8295C92.6859 17.3701 93 16.9086 93 16.0446C93 15.2078 92.57 14.94 91.0117 14.806C89.6046 14.6851 89.2889 14.3761 90.3506 14.1591C91.6346 13.8965 92.563 12.8318 92.3196 11.9014C92.2442 11.6133 92.3083 11.5594 92.6116 11.6556C92.8288 11.7247 93 11.6836 93 11.5626C93 11.4437 93.1745 11.3464 93.3876 11.3464C93.6828 11.3464 93.9065 11.6963 94.3271 12.8154C94.6308 13.6234 95.0034 14.5917 95.1554 14.9675C95.513 15.853 95.5033 16.1082 95.0962 16.5153C94.8553 16.7562 94.5725 16.815 94.089 16.7244C93.4832 16.6107 93.4034 16.6521 93.28 17.1444C93.0209 18.1765 94.5046 18.5674 95.4464 17.7152C95.6366 17.5432 96.3178 16.108 96.9603 14.5262C97.603 12.9446 98.2967 11.5253 98.5022 11.3723C99.2223 10.8366 98.956 10.5359 97.7614 10.5359C96.7822 10.5359 96.6471 10.585 96.6471 10.9412C96.6471 11.1782 96.7822 11.3464 96.9727 11.3464C97.202 11.3464 97.2561 11.4512 97.1556 11.701C97.0772 11.8959 96.8233 12.543 96.5917 13.1387L96.1707 14.2219L95.6676 12.8607C95.2081 11.6177 95.1937 11.4834 95.5007 11.3118C95.6854 11.2082 95.8366 10.9776 95.8366 10.7993C95.8366 10.5155 95.5896 10.4908 93.8611 10.6008C92.7747 10.6699 91.5665 10.6535 91.1765 10.5643C90.7864 10.4752 90.2068 10.4725 89.8884 10.5586ZM40.7255 10.9276C40.7255 11.143 40.9078 11.377 41.1307 11.4477C41.496 11.5636 41.5359 11.7543 41.5359 13.3861C41.5359 15.0609 41.5058 15.1961 41.1307 15.1961C40.8606 15.1961 40.7255 15.3312 40.7255 15.6013C40.7255 15.9705 40.8606 16.0065 42.2451 16.0065C43.6113 16.0065 43.7647 15.967 43.7647 15.6155C43.7647 15.364 43.6018 15.2011 43.3088 15.1596C42.871 15.0974 42.8507 15.005 42.7956 12.8154L42.7383 10.5359H41.7319C40.8722 10.5359 40.7255 10.5931 40.7255 10.9276ZM56.0735 11.7174C56.3981 12.1202 56.4058 14.4282 56.0837 14.7503C55.6807 15.1533 54.761 15.0393 54.4135 14.5431C54.032 13.9984 53.9917 12.1658 54.3513 11.7123C54.8329 11.1051 55.582 11.1073 56.0735 11.7174ZM90.861 11.5942C91.4354 12.4142 91.1505 13.3725 90.3326 13.3725C89.6658 13.3725 89.2731 11.9125 89.7987 11.3869C90.162 11.0236 90.5088 11.0913 90.861 11.5942ZM50.7332 11.6669C51.008 12.3832 50.8706 12.5621 50.0457 12.5621C49.2051 12.5621 49.0892 12.4032 49.445 11.7383C49.6979 11.2658 50.561 11.2179 50.7332 11.6669ZM86.1907 11.6669C86.4655 12.3832 86.3281 12.5621 85.5033 12.5621C84.6626 12.5621 84.5467 12.4032 84.9025 11.7383C85.1554 11.2658 86.0185 11.2179 86.1907 11.6669ZM77.1961 14.1504C77.1961 14.742 76.5617 15.2303 76.031 15.0472C75.6242 14.9067 75.7391 14.2331 76.2282 13.8906C76.899 13.4206 77.1961 13.5004 77.1961 14.1504ZM91.7314 16.4118C91.8188 16.9181 91.4854 17.2305 90.7271 17.3535C90.1644 17.4449 89.9136 17.3776 89.5829 17.047C89.3386 16.8026 89.2111 16.4892 89.2814 16.3056C89.4508 15.8643 91.6536 15.9597 91.7314 16.4118Z" fill="#A6A6A6"/>
</svg>
