<svg width="111" height="25" viewBox="0 0 111 25" fill="none" xmlns="http://www.w3.org/2000/svg">
<path fill-rule="evenodd" clip-rule="evenodd" d="M9.36091 0.325307C7.81507 0.73664 7.07741 1.06147 5.77757 1.90364C2.57441 3.97897 0.53324 7.28814 0.0814067 11.1378C-0.641593 17.3006 3.52507 23.224 9.64474 24.7326C11.1237 25.0973 14.0789 25.1005 15.5704 24.7391C19.1247 23.8778 22.2657 21.3526 23.8536 18.0798C24.8224 16.0826 25.1309 14.7345 25.1309 12.4965C25.1309 10.2585 24.8224 8.91031 23.8536 6.91314C22.2711 3.65131 19.1229 1.11414 15.6002 0.261307C14.0561 -0.112527 10.8839 -0.0800261 9.36091 0.325307ZM15.3609 4.32281C16.6912 4.78264 18.4557 6.0038 19.2732 7.03064C19.9127 7.8338 20.8892 9.61147 20.7582 9.73397C20.6616 9.8243 17.4057 8.79814 15.1772 7.97514C13.0196 7.17831 8.91441 5.18897 8.82341 4.8963C8.76407 4.7053 9.71241 4.29097 10.8609 4.00631C11.8584 3.75897 14.2077 3.92431 15.3609 4.32281ZM6.48274 8.22447C7.73924 9.02781 10.7529 10.5036 12.6797 11.2595L14.3317 11.9075L13.6797 12.051C11.9991 12.4205 8.18624 13.594 6.50441 14.2591C5.47907 14.6646 4.56674 14.9965 4.47691 14.9965C4.07857 14.9965 3.84091 12.5596 4.09641 11.0933C4.33257 9.7363 5.20807 7.66314 5.54474 7.66314C5.57757 7.66314 5.99957 7.91581 6.48274 8.22447ZM89.3319 9.17047C87.4344 9.54581 86.4442 10.7901 86.4442 12.7996C86.4442 14.5086 87.0347 15.6598 88.1777 16.179C88.9569 16.5328 91.1126 16.6098 92.1526 16.321L92.7776 16.1475V14.1553V12.1631H91.1942H89.6109V12.9965V13.8298H90.1942C90.7312 13.8298 90.7776 13.8695 90.7776 14.3298C90.7776 14.7546 90.7137 14.8298 90.3526 14.8298C89.2936 14.8298 88.6109 14.046 88.6109 12.8298C88.6109 11.1438 89.7569 10.4978 91.7086 11.0835C92.0031 11.1718 92.1016 11.0691 92.3527 10.4113C92.5192 9.97514 92.5861 9.5723 92.5051 9.49197C92.3821 9.36997 90.3529 8.96664 90.1109 9.01597C90.0651 9.02531 89.7146 9.09481 89.3319 9.17047ZM28.4719 11.9846C28.5337 15.1171 28.5972 15.317 29.7929 16.1353C30.2957 16.4795 30.5174 16.5176 31.7237 16.4686C33.1876 16.409 33.6571 16.1941 34.3506 15.2661C34.6599 14.8523 34.6997 14.5243 34.7499 11.9846L34.8057 9.16314H33.7082H32.6109V11.6313C32.6109 14.4165 32.5131 14.7186 31.6109 14.7186C30.7087 14.7186 30.6109 14.4165 30.6109 11.6313V9.16314H29.5136H28.4161L28.4719 11.9846ZM36.7776 12.8298V16.4965H39.1942H41.6109V15.6631V14.8298H40.2776H38.9442V11.9965V9.16314H37.8609H36.7776V12.8298ZM42.4442 10.0798V10.9965H43.3609H44.2776V13.7465V16.4965H45.2776H46.2776V13.7465V10.9965H47.1942H48.1109V10.0798V9.16314H45.2776H42.4442V10.0798ZM49.6109 12.8298V16.4965H50.6109H51.6109V12.8298V9.16314H50.6109H49.6109V12.8298ZM53.4442 12.8298V16.4965H54.3609H55.2776L55.2891 14.4548L55.3006 12.4131L55.6924 13.7465C55.9079 14.4798 56.1691 15.402 56.2727 15.7958L56.4612 16.512L57.4836 16.4625L58.5061 16.4131L59.1001 14.2465L59.6942 12.0798L59.7407 14.2881L59.7872 16.4965H60.6991H61.6109V12.8231V9.14964L60.2497 9.19814L58.8884 9.24647L58.2141 11.641L57.5397 14.0355L57.1722 12.8076C56.9701 12.1323 56.6454 11.0361 56.4507 10.3715L56.0967 9.16314H54.7706H53.4442V12.8298ZM64.3947 12.701C63.7717 14.651 63.2656 16.3061 63.2697 16.3791C63.2741 16.452 63.7839 16.4895 64.4026 16.4625L65.5276 16.4131L65.6819 15.7881L65.8364 15.1631H66.9589H68.0816L68.1942 15.8298L68.3069 16.4965H69.4589C70.2756 16.4965 70.6076 16.4358 70.5992 16.2881C70.5927 16.1736 70.0844 14.5423 69.4696 12.6631L68.3517 9.24647L66.9396 9.20097L65.5276 9.15547L64.3947 12.701ZM70.7776 10.0798V10.9965H71.6109H72.4442V13.7465V16.4965H73.5276H74.6109V13.7465V10.9965H75.4442H76.2776V10.0798V9.16314H73.5276H70.7776V10.0798ZM77.7776 12.8298V16.4965H79.9442H82.1109V15.5798V14.6631H81.0276H79.9442V14.0798V13.4965H80.9442H81.9442V12.6631V11.8298H80.9442H79.9442V11.3298V10.8298H81.0276H82.1109V9.99647V9.16314H79.9442H77.7776V12.8298ZM94.1109 9.31831C94.1109 9.40364 94.6359 10.4483 95.2776 11.64L96.4442 13.8063V15.1515V16.4965H97.4442H98.4442V15.135V13.7736L99.6109 11.6401C100.253 10.4668 100.778 9.42947 100.778 9.33497C100.778 9.23431 100.323 9.16314 99.6806 9.16314H98.5834L98.0651 10.3298C97.7799 10.9715 97.5049 11.4935 97.4537 11.4898C97.4027 11.4861 97.1209 10.9611 96.8274 10.3231L96.2939 9.16314H95.2024C94.6021 9.16314 94.1109 9.23297 94.1109 9.31831ZM102.111 12.8298V16.4965H103.028H103.944L103.958 14.2881L103.972 12.0798L104.589 14.2465L105.206 16.4131L106.221 16.4621L107.236 16.5113L107.798 14.4621L108.361 12.4131L108.408 14.4548L108.455 16.4965H109.449H110.444V12.8298V9.16314H109.058H107.672L107.037 11.4131C106.688 12.6506 106.348 13.6631 106.281 13.6631C106.215 13.6631 105.869 12.6506 105.512 11.4131L104.864 9.16314H103.487H102.111V12.8298ZM67.3227 12.3715L67.5861 13.3298H66.9551H66.3241L66.5926 12.255C66.7401 11.6638 66.9056 11.2325 66.9602 11.2966C67.0149 11.3606 67.1779 11.8443 67.3227 12.3715ZM20.6277 15.659C19.1787 19.4725 14.6806 21.8623 10.7114 20.9273C9.32557 20.601 7.85024 19.8425 7.10491 19.0735L6.55657 18.508L7.30174 18.1885C10.2516 16.9241 18.1811 14.8993 20.4019 14.8435L20.9429 14.8298L20.6277 15.659Z" fill="#A6A6A6"/>
</svg>
