<svg width="93" height="27" viewBox="0 0 93 27" fill="none" xmlns="http://www.w3.org/2000/svg">
<path fill-rule="evenodd" clip-rule="evenodd" d="M11.6476 0.113553C8.5187 0.553472 6.25496 1.68587 3.9806 3.94813C2.02741 5.89091 0.768834 8.22602 0.279422 10.8146C-0.285186 13.8009 -0.0213601 14.9648 1.32027 15.4077C2.77768 15.8886 4.00057 15.0119 4.00057 13.4859C4.00057 7.96602 9.26514 3.30981 14.5722 4.13591C17.6663 4.61767 20.4337 6.63713 21.75 9.37393C22.8278 11.6147 22.7522 13.0583 21.5123 13.9078C20.9322 14.3054 20.6004 14.3855 19.9147 14.2935C18.7532 14.1378 18.3339 13.7045 17.8044 12.1135C16.7257 8.87177 14.1973 7.13249 10.9437 7.39355C8.65487 7.5773 6.92259 8.76493 5.89321 10.8555C5.09792 12.4712 5.00106 14.1474 5.58627 16.173C7.30155 22.1112 12.9674 26.1337 19.0823 25.7548C22.464 25.5451 25.3439 24.2897 27.7237 21.9884C29.7633 20.0157 30.922 17.9051 31.4992 15.1109C32.0355 12.5145 31.8985 11.2829 30.9962 10.5902C30.6361 10.3139 29.3253 10.2317 28.7569 10.4498C28.2551 10.6423 27.7923 11.6636 27.7863 12.5908C27.7719 14.8254 26.7204 17.1531 24.9006 18.9791C21.9947 21.8945 17.9991 22.5643 14.3245 20.7517C11.7572 19.4855 9.56168 16.5235 9.35648 14.0495C9.27343 13.0469 9.32823 12.8544 9.87138 12.2467C10.3058 11.7604 10.7274 11.533 11.3481 11.4497C12.1056 11.3481 12.3144 11.4189 12.9793 12.0028C13.4166 12.3867 13.8047 12.9632 13.8891 13.3538C14.254 15.0451 15.7131 16.9951 17.1811 17.7532C18.3129 18.3378 19.9413 18.5697 21.3564 18.348C24.8753 17.7965 27.0858 14.5892 26.4912 10.8972C25.8746 7.06813 23.2336 3.45001 19.7221 1.623C17.1442 0.281789 14.2706 -0.255417 11.6476 0.113553ZM53.9189 7.23785V12.2297H55.1934H56.4679V7.23785V2.24602H55.1934H53.9189V7.23785ZM36.713 7.55648V12.2297L38.6779 12.2284C41.8002 12.2267 43.2293 11.612 44.0945 9.89945C44.715 8.67104 44.75 6.3748 44.1678 5.09264C43.4233 3.45362 42.0402 2.88625 38.7841 2.88455L36.713 2.88328V7.55648ZM61.3535 7.55648V12.2297H62.5218H63.6901L63.7164 10.5834C63.7309 9.67811 63.733 8.41146 63.7211 7.7689C63.695 6.36269 63.7736 6.5237 64.6509 9.67365L65.3332 12.1235L66.6249 12.1863L67.9168 12.2494L68.1377 11.4429C68.2592 10.9994 68.5904 9.82404 68.8735 8.83099L69.3884 7.02543L69.4069 9.62756L69.4254 12.2297H70.6999H71.9744V7.55648V2.88328H70.2196H68.4646L67.6334 5.86244C67.1763 7.50104 66.7372 8.76769 66.658 8.67698C66.5788 8.58649 66.1495 7.24592 65.7043 5.69782L64.8949 2.88328H63.1242H61.3535V7.55648ZM47.4331 5.21945C46.3202 5.77025 45.817 6.65604 45.6989 8.27126C45.5795 9.90285 46.1938 11.2472 47.3305 11.8422C48.1568 12.2747 50.7305 12.3816 51.6747 12.0226C52.1515 11.8412 52.2195 11.6923 52.2195 10.8294C52.2195 9.90519 52.1896 9.85272 51.7416 9.99016C51.4786 10.0709 50.8069 10.19 50.2487 10.255C49.4566 10.3472 49.142 10.2899 48.8149 9.99398C48.5846 9.78539 48.396 9.53409 48.396 9.43532C48.396 9.33654 49.3519 9.25583 50.5202 9.25583H52.6444V8.11896C52.6444 5.46097 49.9611 3.96809 47.4331 5.21945ZM75.0581 5.03571C74.5929 5.14468 74.1366 5.3093 74.0442 5.4017C73.9174 5.52852 74.3592 7.00419 74.6071 7.28161C74.6286 7.30561 75.0592 7.18305 75.5639 7.00908C76.5588 6.66623 77.2849 6.76883 77.2849 7.25208C77.2849 7.46195 77.0376 7.55691 76.4883 7.55776C75.2474 7.55946 74.1587 7.94393 73.6833 8.54826C72.9554 9.47398 73.1623 11.2526 74.0801 11.9574C74.6411 12.3879 76.5996 12.2928 77.2898 11.8014L77.8913 11.373L78.0273 11.8014C78.1367 12.146 78.3472 12.2297 79.1047 12.2297H80.0463V9.44785C80.0463 6.30342 79.8556 5.72394 78.6269 5.13809C77.8448 4.76509 76.3925 4.72345 75.0581 5.03571ZM85.1444 4.94501C84.9691 5.00916 84.6069 5.26066 84.3395 5.5041L83.8535 5.94656L83.7307 5.47712C83.6251 5.07352 83.4622 5.00746 82.5705 5.00746H81.5332V8.61857V12.2297H82.8078H84.0823V10.562C84.0823 7.9059 84.3295 7.48362 85.994 7.29733C86.4834 7.24252 86.5302 7.14184 86.5888 6.01645C86.6521 4.80184 86.6491 4.79504 86.0577 4.81182C85.7306 4.82096 85.3196 4.88107 85.1444 4.94501ZM41.3331 5.77854C41.695 6.17767 41.811 6.56406 41.811 7.36998C41.811 8.98988 41.1959 9.87311 40.0586 9.88628L39.4744 9.89308V7.43349V4.97369L40.1648 5.11261C40.5446 5.18908 41.0701 5.48859 41.3331 5.77854ZM49.7888 7.00801C50.3417 7.41246 50.097 7.59896 49.1205 7.5174C48.3529 7.45346 48.3329 7.43306 48.6895 7.07854C49.1422 6.62864 49.2597 6.62099 49.7888 7.00801ZM77.4973 9.20846C77.4973 9.59973 76.8018 10.3179 76.4231 10.3179C75.8961 10.3179 75.8668 9.57296 76.3821 9.27282C76.8252 9.01473 77.4973 8.97607 77.4973 9.20846ZM38.6509 14.5567C37.5956 14.8205 36.8542 15.4582 36.5515 16.3619C36.015 17.965 36.868 19.3873 38.8928 20.2659C39.964 20.7307 40.3719 21.281 39.8772 21.5944C39.416 21.8862 38.7159 21.8242 37.4511 21.3798L36.2881 20.9709V22.2087C36.2881 23.4059 36.31 23.4539 36.957 23.6795C37.9869 24.0384 40.4583 23.9698 41.3261 23.5579C42.273 23.1085 42.8716 22.1356 42.8716 21.045C42.8716 19.7977 42.2803 19.0099 40.7271 18.1882C39.9798 17.7929 39.3004 17.3666 39.2178 17.2411C38.8408 16.669 39.8971 16.5679 41.6211 17.0108C42.1188 17.1389 42.2097 17.0652 42.5239 16.2803C42.7159 15.8002 42.8731 15.3212 42.8731 15.2156C42.8731 14.7233 39.8631 14.2534 38.6509 14.5567ZM44.7885 16.0462C44.5521 16.5095 44.1678 16.9908 43.9346 17.1157C43.3381 17.435 43.3385 18.6022 43.9352 18.6022C44.3288 18.6022 44.36 18.7439 44.36 20.528C44.36 23.3037 44.7704 23.8968 46.6966 23.9031C48.6547 23.9095 48.8208 23.8097 48.8208 22.6267V21.6029L48.0561 21.7269C47.0771 21.8858 46.9165 21.6334 46.9122 19.9298L46.9091 18.6022H47.7587H48.6084V17.6463V16.6905H47.7587C46.9292 16.6905 46.9091 16.6728 46.9091 15.947C46.9091 15.2218 46.8882 15.2035 46.0636 15.2035C45.2926 15.2035 45.1806 15.2775 44.7885 16.0462ZM64.3637 15.9268C64.2197 16.3247 63.866 16.8047 63.5775 16.9938C62.8948 17.4409 62.8228 18.6022 63.4777 18.6022C63.8738 18.6022 63.9025 18.7439 63.9025 20.6975C63.9025 22.6781 63.9331 22.8234 64.4625 23.3528C64.9355 23.8258 65.2076 23.9123 66.2149 23.9097C68.2053 23.905 68.3633 23.8105 68.3633 22.6267V21.6029L67.5986 21.7269C66.6196 21.8858 66.459 21.6334 66.4547 19.9298L66.4515 18.6022H67.3012H68.1509V17.6463V16.6905H67.3012C66.4717 16.6905 66.4515 16.6728 66.4515 15.947C66.4515 15.2127 66.4403 15.2035 65.5384 15.2035C64.6923 15.2035 64.6058 15.2569 64.3637 15.9268ZM53.1223 16.8281C52.7425 17.0153 52.4319 17.2521 52.4319 17.3543C52.4319 17.7181 52.0547 17.5329 51.9455 17.1153C51.8548 16.7682 51.6558 16.6905 50.8588 16.6905H49.8829V20.3016V23.9127H51.1574H52.4319V21.8947C52.4319 19.5636 52.7253 19.0271 54.0002 19.0271C54.7991 19.0271 54.9729 18.7159 54.978 17.2746C54.9807 16.5454 54.9317 16.4785 54.3968 16.4829C54.0756 16.4855 53.5021 16.641 53.1223 16.8281ZM57.0025 16.7187C55.8412 16.9906 55.7514 17.1416 56.1847 18.0933C56.3918 18.5485 56.5681 18.9406 56.576 18.9646C56.5841 18.9886 57.0036 18.8661 57.5083 18.6921C58.5033 18.3492 59.2293 18.4518 59.2293 18.9351C59.2293 19.1545 58.9606 19.2395 58.2666 19.2395C57.0816 19.2395 55.9989 19.6711 55.5398 20.3264C54.9075 21.2292 55.1634 22.9793 56.0246 23.6404C56.5626 24.0533 58.3894 23.97 59.165 23.497C59.8385 23.0864 59.8453 23.0864 59.976 23.4978C60.0805 23.8271 60.3016 23.9127 61.0491 23.9127H61.9908V21.1406C61.9908 17.9856 61.7998 17.3755 60.6404 16.8254C59.8466 16.4487 58.3444 16.4048 57.0025 16.7187ZM70.7991 16.9025C69.5537 17.5189 69.1083 18.3864 69.1083 20.1954C69.1083 22.8255 70.2517 23.9127 73.018 23.9127C73.835 23.9127 74.7469 23.8018 75.0445 23.6661C75.5065 23.4558 75.5855 23.2814 75.5855 22.4731C75.5855 21.5897 75.5537 21.5364 75.1076 21.6732C74.8448 21.7539 74.1729 21.873 73.6147 21.938C72.8226 22.0302 72.508 21.9729 72.1809 21.677C71.9506 21.4684 71.762 21.2171 71.762 21.1183C71.762 21.0196 72.7179 20.9388 73.8862 20.9388H76.0104V19.8557C76.0104 18.3437 75.5273 17.4403 74.4366 16.9122C73.3003 16.3621 71.8984 16.3585 70.7991 16.9025ZM78.443 16.7805C78.087 16.9335 77.633 17.3069 77.434 17.6104C76.9416 18.362 76.9618 19.9054 77.4724 20.5359C77.8406 20.9907 77.8459 21.0701 77.5402 21.5368C77.28 21.9338 77.2566 22.1728 77.4323 22.638C77.6303 23.1626 77.5925 23.2801 77.1096 23.6406C76.3352 24.2186 76.3492 25.4102 77.1396 26.2006C77.6536 26.7147 77.9028 26.7859 79.4273 26.8551C82.7364 27.0055 84.5846 25.5472 83.8616 23.3566C83.541 22.385 82.7372 22.0009 81.0254 22.0009C80.267 22.0009 79.5875 21.9053 79.5153 21.7885C79.4358 21.6602 79.7277 21.5761 80.253 21.5761C82.1161 21.5761 83.2326 20.6523 83.2326 19.1108C83.2326 18.4187 83.3207 18.2039 83.6394 18.1205C83.8633 18.062 84.0782 17.7912 84.1173 17.5189C84.1655 17.1833 84.5256 17.8768 85.2344 19.6715C85.8096 21.1279 86.4044 22.6208 86.5561 22.9889C86.8021 23.586 86.7849 23.7177 86.3974 24.2103C86.1066 24.5801 85.758 24.7624 85.3413 24.7624C84.7367 24.7624 84.7195 24.7919 84.7195 25.8245V26.8865L85.8347 26.8857C87.0948 26.8848 88.0851 26.3967 88.6852 25.4808C88.8929 25.1638 89.7451 23.0802 90.5789 20.8505L92.0947 16.7967L90.9268 16.7321C90.2844 16.6966 89.6472 16.7104 89.5104 16.7629C89.3738 16.8154 89.0314 17.6808 88.7493 18.6861C88.4674 19.6915 88.1758 20.514 88.1014 20.514C88.0271 20.514 87.7454 19.6924 87.4754 18.688C87.2057 17.6839 86.8813 16.8315 86.7549 16.7941C86.6285 16.7567 84.8523 16.6758 82.8078 16.6142C80.0074 16.5299 78.9307 16.5711 78.443 16.7805ZM80.5774 19.03C80.5774 19.6289 80.4962 19.7705 80.1525 19.7705C79.8696 19.7705 79.7043 19.6057 79.6578 19.2771C79.5567 18.5629 79.7774 18.1353 80.205 18.2178C80.475 18.2698 80.5774 18.493 80.5774 19.03ZM73.1253 18.5187C73.814 18.783 73.4885 19.2395 72.6117 19.2395C71.6617 19.2395 71.6207 19.1985 72.0957 18.7235C72.4619 18.3575 72.6221 18.3257 73.1253 18.5187ZM59.3213 21.2044C59.0564 22.0525 57.9548 22.3608 57.9548 21.5867C57.9548 21.1353 58.4737 20.743 59.0842 20.7328C59.388 20.7277 59.4386 20.8284 59.3213 21.2044ZM81.4385 24.356C81.6611 24.7163 81.2399 24.9975 80.2866 25.1254C79.2674 25.2622 78.6085 24.8964 79.0076 24.4155C79.2969 24.0669 81.2305 24.0195 81.4385 24.356Z" fill="#A6A6A6"/>
</svg>
