<svg width="108" height="21" viewBox="0 0 108 21" fill="none" xmlns="http://www.w3.org/2000/svg">
<path fill-rule="evenodd" clip-rule="evenodd" d="M7.86928 0.256665C6.04617 0.650312 4.4778 1.53314 3.01229 2.99023C0.933883 5.05693 0 7.29784 0 10.219C0 13.1401 0.933883 15.3811 3.01229 17.4477C5.64667 20.0673 9.12379 21.0208 12.7034 20.1054C14.5701 19.6279 15.7411 18.9742 17.2211 17.5835C19.2852 15.6437 20.3399 13.1535 20.3399 10.219C20.3399 7.28448 19.2852 4.79431 17.2211 2.85444C15.7411 1.46377 14.5701 0.810076 12.7034 0.332612C11.0713 -0.0848262 9.56008 -0.108433 7.86928 0.256665ZM12.4569 1.72968C14.0809 2.21136 15.2038 2.87896 16.3877 4.06613C19.8624 7.55094 19.8624 12.887 16.3877 16.3719C13.3816 19.3865 8.93694 19.8709 5.37929 17.5715C2.54782 15.7414 0.886849 12.0963 1.44959 8.94728C1.73106 7.37324 2.63822 5.45771 3.63286 4.3379C5.7605 1.94271 9.4748 0.844848 12.4569 1.72968ZM6.09851 6.10537C5.02188 6.75065 4.49647 7.67392 4.48933 8.93282C4.48622 9.48916 4.60792 10.1915 4.75982 10.4935C5.01548 11.0015 5.11888 11.0465 6.14682 11.0961L7.25749 11.1499L7.59111 10.4099C7.91613 9.68937 8.23419 9.43737 8.23639 9.89873C8.23694 10.0246 8.32753 10.4523 8.43788 10.8494C8.68768 11.7495 8.78614 11.5826 9.33297 9.33306C9.58222 8.30767 9.80549 7.71565 9.89077 7.85363C9.9691 7.98009 10.0915 9.01847 10.1629 10.1608C10.2343 11.3031 10.3541 12.2758 10.4294 12.3223C10.5046 12.3688 10.6713 11.894 10.7999 11.2673C10.9284 10.6403 11.0982 10.004 11.1771 9.85298C11.3171 9.58524 11.3731 9.67912 11.8036 10.9053C11.8601 11.0663 12.3908 11.134 13.5943 11.134H15.3048L15.6132 10.4873C16.2717 9.10631 15.7955 7.22263 14.547 6.27044C13.6056 5.55233 11.8522 5.41708 10.8849 5.98788L10.2304 6.37421L9.51469 6.00892C8.48125 5.48187 7.07247 5.52158 6.09851 6.10537ZM54.902 10.3105V14.6111H56H57.098V10.3105V6.00984H56H54.902V10.3105ZM96.9935 10.3105C96.9935 14.4891 97.0039 14.6111 97.3595 14.6111C97.7151 14.6111 97.7255 14.4891 97.7255 10.3105C97.7255 6.13191 97.7151 6.00984 97.3595 6.00984C97.0039 6.00984 96.9935 6.13191 96.9935 10.3105ZM103.216 10.3105C103.216 14.4891 103.226 14.6111 103.582 14.6111C103.925 14.6111 103.948 14.4891 103.948 12.6067C103.948 10.3859 104.126 9.77666 104.889 9.38173C105.631 8.99797 106.285 9.06275 106.793 9.57023C107.222 9.99938 107.242 10.1216 107.242 12.3153C107.242 14.4891 107.261 14.6111 107.608 14.6111C107.954 14.6111 107.974 14.4891 107.974 12.3355C107.974 9.80942 107.85 9.28785 107.138 8.82137C106.52 8.41674 105.029 8.42132 104.405 8.82942L103.948 9.12937V7.56961C103.948 6.13191 103.919 6.00984 103.582 6.00984C103.226 6.00984 103.216 6.13191 103.216 10.3105ZM26.0784 6.46974C25.9778 6.50231 25.5849 6.58082 25.2053 6.64433C24.3684 6.78451 23.3315 7.65397 22.9294 8.55271C22.743 8.9696 22.6293 9.75141 22.6209 10.6765C22.6094 11.9103 22.6787 12.2692 23.0623 12.9586C23.7189 14.1386 24.6314 14.6044 26.2953 14.6082C27.0185 14.6099 27.8214 14.5308 28.0796 14.4327C28.5047 14.2711 28.549 14.1595 28.549 13.2512V12.2483L27.7939 12.5146C26.8425 12.8504 26.467 12.8495 25.8101 12.5097C24.875 12.0262 24.6261 10.105 25.3543 8.9923C25.7086 8.45096 26.6306 8.30511 27.5754 8.64074L28.3402 8.91269L28.6277 8.06921C28.7856 7.60529 28.915 7.16443 28.915 7.08939C28.915 6.82477 26.5669 6.31162 26.0784 6.46974ZM77.4118 10.585C77.4118 14.4891 77.4229 14.6111 77.7778 14.6111C78.1205 14.6111 78.1438 14.4891 78.1438 12.6896V10.768H80.3399H82.5359V12.6896C82.5359 14.4891 82.5592 14.6111 82.902 14.6111C83.2568 14.6111 83.268 14.4891 83.268 10.585C83.268 6.68093 83.2568 6.55886 82.902 6.55886C82.5616 6.55886 82.5359 6.68093 82.5359 8.29742V10.036H80.3399H78.1438V8.29742C78.1438 6.68093 78.1182 6.55886 77.7778 6.55886C77.4229 6.55886 77.4118 6.68093 77.4118 10.585ZM65.9986 7.71766C65.8584 8.05311 65.5279 8.49727 65.264 8.7048C64.6659 9.17531 64.5923 10.036 65.1503 10.036C65.4894 10.036 65.5163 10.1581 65.5163 11.6951C65.5163 14.0865 65.8699 14.5974 67.5294 14.6029C69.2143 14.6084 69.3595 14.5217 69.3595 13.5093V12.6328L68.6542 12.7275C68.0294 12.8113 67.9357 12.7727 67.8332 12.3898C67.7695 12.1521 67.7163 11.5251 67.715 10.9968L67.7124 10.036H68.5359H69.3595V9.21245V8.38893H68.5359C67.7168 8.38893 67.7124 8.38545 67.7124 7.7484C67.7124 7.12344 67.6947 7.10788 66.9828 7.10788C66.3291 7.10788 66.2268 7.1712 65.9986 7.71766ZM99.6703 7.82728C99.5804 8.38947 99.4659 8.5593 99.1456 8.60506C98.5373 8.6918 98.484 9.30396 99.0847 9.30396H99.5555V11.4206C99.5555 14.2479 99.7444 14.6035 101.248 14.6084C101.993 14.6108 102.118 14.5594 102.118 14.2497C102.118 13.945 102.031 13.9057 101.564 13.999C101.171 14.0777 100.905 14.0147 100.649 13.783C100.33 13.4944 100.288 13.2144 100.288 11.3802V9.30396H101.111C101.813 9.30396 101.935 9.24979 101.935 8.93795C101.935 8.6261 101.813 8.57193 101.111 8.57193H100.288V7.83991C100.288 6.85387 99.8275 6.84435 99.6703 7.82728ZM31.1247 8.60432C30.0698 9.15792 29.6471 9.95986 29.6474 11.4056C29.648 13.5019 30.6767 14.6111 32.6204 14.6111C34.7621 14.6111 35.7825 13.6037 35.7716 11.5C35.7609 9.45567 34.8693 8.42297 32.9791 8.26613C32.1299 8.19549 31.7831 8.25881 31.1247 8.60432ZM39.4072 8.56077C38.9246 8.85504 38.8106 8.87023 38.7267 8.65154C38.6576 8.47146 38.3362 8.38893 37.705 8.38893H36.7843V11.5V14.6111H37.9739H39.1634V12.7099C39.1634 11.1682 39.2243 10.7334 39.4853 10.4111C39.9033 9.89488 40.3692 10.072 40.5154 10.8026C40.5771 11.1108 40.6274 12.0937 40.6274 12.987V14.6111H41.7255H42.8235V12.8845C42.8235 11.0006 42.9851 10.3367 43.491 10.1425C44.0956 9.91044 44.2876 10.5107 44.2876 12.633V14.6111H45.3856H46.4837L46.4796 12.0033C46.4762 9.80906 46.4253 9.33361 46.1594 9.00511C45.4705 8.15486 44.292 7.96527 43.1824 8.52618C42.5794 8.83107 42.5183 8.83107 41.9085 8.52655C41.0714 8.1082 40.128 8.12119 39.4072 8.56077ZM50.8758 8.32652C50.7248 8.38709 50.4589 8.56077 50.2849 8.7123C50.002 8.95862 49.9562 8.95606 49.8535 8.68832C49.7668 8.46231 49.4967 8.38893 48.7517 8.38893H47.7647V12.7811V17.1732H48.9676H50.1707L50.1114 15.6299C50.058 14.2332 50.0797 14.1115 50.3413 14.3489C50.5107 14.5028 51.0068 14.6111 51.542 14.6111C53.0664 14.6111 53.8039 13.5669 53.8039 11.4085C53.8039 10.1035 53.5188 9.21941 52.9284 8.69363C52.5375 8.34555 51.3553 8.13418 50.8758 8.32652ZM59.6997 8.5582C58.7209 9.01682 58.2058 10.0274 58.2005 11.5C58.1959 12.7317 58.6166 13.6333 59.4585 14.1957C59.9612 14.5315 60.3327 14.6111 61.3985 14.6111C62.1234 14.6111 62.976 14.5207 63.293 14.4102C63.8248 14.2248 63.8693 14.1454 63.8693 13.3824C63.8693 12.6092 63.8424 12.5637 63.4575 12.6817C62.0282 13.1206 60.5752 12.9368 60.5752 12.3172C60.5752 12.0996 60.9201 12.0491 62.4052 12.0491H64.2353L64.2349 11.1798C64.2347 10.1725 63.7977 9.20422 63.1195 8.70736C62.3922 8.17462 60.6778 8.09996 59.6997 8.5582ZM71.8562 8.39405C70.6709 8.74927 70.0668 9.76532 70.0573 11.4199C70.0494 12.7772 70.4182 13.5614 71.3638 14.1988C71.8595 14.5328 72.2288 14.6111 73.3093 14.6111C74.0428 14.6111 74.8541 14.5308 75.1123 14.4327C75.5231 14.2764 75.5817 14.1481 75.5817 13.4048C75.5817 12.6056 75.5574 12.5635 75.1699 12.6918C74.9436 12.7668 74.3744 12.8662 73.9054 12.9127C73.1896 12.9837 72.9839 12.9284 72.6243 12.5688L72.1961 12.1406L74.1837 12.0884L76.1713 12.0362L76.0407 10.9905C75.9688 10.4154 75.7894 9.71188 75.6423 9.42694C75.1449 8.46506 73.2992 7.96161 71.8562 8.39405ZM86.7833 8.57632C85.5947 8.84369 84.915 9.93625 84.915 11.5793C84.915 13.6355 85.7995 14.6113 87.6601 14.608C89.0378 14.6055 89.4902 14.4605 89.4902 14.0211C89.4902 13.7532 89.4078 13.6886 89.1782 13.7766C88.383 14.0819 87.338 14.0942 86.7789 13.8052C86.1692 13.4897 85.6471 12.6841 85.6471 12.0582C85.6471 11.7015 85.7519 11.683 87.7765 11.683H89.906L89.7964 10.8828C89.736 10.4426 89.5956 9.88684 89.4843 9.64746C89.0709 8.75787 87.9509 8.31371 86.7833 8.57632ZM92.4315 8.59261C91.4758 8.7747 91.1499 9.02378 91.4608 9.3347C91.6237 9.49758 91.844 9.49758 92.3879 9.3347C92.7803 9.21721 93.2396 9.12095 93.4085 9.12095C93.8595 9.12095 94.6144 9.95217 94.6144 10.4487C94.6144 10.8447 94.504 10.8941 93.1999 11.0819C91.9783 11.2579 91.7163 11.3631 91.2783 11.8532C90.7123 12.4868 90.64 13.0946 91.039 13.8659C91.3633 14.4931 91.6381 14.6111 92.7746 14.6111C93.3751 14.6111 93.7973 14.4953 94.119 14.2422L94.5878 13.8734L94.705 14.2422C94.7694 14.4452 94.9399 14.6111 95.0842 14.6111C95.2977 14.6111 95.3464 14.1908 95.3464 12.3508C95.3464 11.1077 95.26 9.8431 95.1546 9.54059C94.853 8.67551 93.8425 8.32378 92.4315 8.59261ZM9.67775 9.02945C9.61663 9.1301 9.42118 9.8301 9.24348 10.585C9.06596 11.3399 8.85532 12.0291 8.77553 12.1168C8.64303 12.2623 8.23877 11.156 8.23639 10.6416C8.23401 10.1679 7.86946 10.2367 7.59788 10.762C7.33673 11.2673 7.22912 11.317 6.40047 11.317C5.89976 11.317 5.4902 11.38 5.4902 11.457C5.4902 11.6666 9.95007 16.0752 10.1622 16.0752C10.2628 16.0752 11.4134 15.0046 12.719 13.6961L15.0927 11.317H13.4061C11.7596 11.317 11.7166 11.306 11.6046 10.8595C11.4094 10.0817 11.2126 10.3451 10.8872 11.8203C10.3346 14.3264 10.3075 14.2837 9.92865 10.3105C9.85197 9.50527 9.73906 8.92879 9.67775 9.02945ZM88.2135 9.42731C88.7142 9.72286 88.9335 10.1421 88.9386 10.8138C88.9408 11.0954 88.7411 11.134 87.2818 11.134C85.6465 11.134 85.6242 11.128 85.7453 10.7223C86.1593 9.33507 87.1647 8.80765 88.2135 9.42731ZM61.6853 10.0424C62.2579 10.3489 62.0934 10.585 61.3072 10.585C60.534 10.585 60.3618 10.3616 60.8954 10.0506C61.2973 9.81656 61.264 9.81693 61.6853 10.0424ZM73.6817 10.1732C73.989 10.4787 73.9718 10.4962 73.3104 10.5513C72.4691 10.6216 72.2583 10.4609 72.7347 10.1125C73.1905 9.77904 73.2917 9.78563 73.6817 10.1732ZM33.3008 10.3899C33.6033 10.9554 33.5262 12.147 33.1577 12.6021C32.4112 13.5241 31.5598 12.0893 32.0221 10.6884C32.189 10.1828 32.3358 10.036 32.6743 10.036C32.919 10.036 33.1946 10.1917 33.3008 10.3899ZM51.4828 10.9205C51.7089 12.0511 51.046 13.1191 50.4337 12.6109C50.0422 12.2859 50.0404 10.7146 50.4309 10.3239C50.8222 9.93277 51.3445 10.2289 51.4828 10.9205ZM94.6144 12.2291C94.6144 12.9244 93.8066 13.8131 93.0347 13.9673C92.5887 14.0563 92.3489 13.9849 91.9547 13.6458C90.9096 12.7469 91.8627 11.7057 93.7451 11.6902C94.5895 11.6832 94.6144 11.6986 94.6144 12.2291Z" fill="#A6A6A6"/>
</svg>
