<svg width="114" height="22" viewBox="0 0 114 22" fill="none" xmlns="http://www.w3.org/2000/svg">
<path fill-rule="evenodd" clip-rule="evenodd" d="M6.60291 0.0918312C6.5284 0.166341 6.46742 1.52536 6.46742 3.11183C6.46742 5.26066 6.40154 6.05105 6.20879 6.21105C6.05409 6.33928 4.7735 6.44751 3.02252 6.48006L0.094873 6.53458L0.0409511 9.61791C-0.0229704 13.2644 -0.42748 12.8871 3.62193 12.9575C6.05585 12.9999 6.37193 13.0438 6.43036 13.3483C6.49017 13.6599 6.27781 13.6914 4.12879 13.6914C2.82193 13.6914 1.76154 13.772 1.76154 13.8714C1.76154 14.6042 1.97056 14.6718 4.2335 14.6718H6.46742V16.7895C6.46742 18.1752 6.54879 18.9885 6.70272 19.1424C6.96977 19.4095 12.2808 19.4777 12.6876 19.2193C12.8557 19.1126 12.9437 18.1597 12.9817 16.0361L13.036 13.0052L15.7811 12.9575C19.8333 12.8871 19.4284 13.2644 19.3645 9.61791L19.3106 6.53458L17.1047 6.47909L14.8988 6.42359V4.31242C14.8988 2.13477 14.77 1.73065 14.0753 1.73065C13.7551 1.73065 13.7223 1.9485 13.7223 4.0836C13.7223 5.37771 13.6449 6.43654 13.5502 6.43654C13.078 6.43654 12.9457 5.74124 12.8945 2.99164L12.84 0.0639884L9.78919 0.0102625C8.11134 -0.0193454 6.67742 0.0173214 6.60291 0.0918312ZM38.0361 6.5136C38.0361 6.66379 38.1684 6.83752 38.3302 6.89967C38.578 6.99477 38.6243 7.63046 38.6243 10.9463C38.6243 14.2622 38.578 14.8979 38.3302 14.993C38.1684 15.0552 38.0362 15.2067 38.0364 15.3301C38.0366 15.4807 38.5843 15.5542 39.7033 15.5542C40.9059 15.5542 41.3698 15.4859 41.3696 15.3091C41.3694 15.1744 41.2464 15.064 41.0962 15.064C40.946 15.064 40.7696 14.9244 40.7041 14.7538C40.6386 14.5832 40.5851 12.5979 40.5851 10.342V6.24046H39.3106C38.3519 6.24046 38.0361 6.30811 38.0361 6.5136ZM62.1047 6.44418C61.711 6.68262 61.6451 7.61418 61.9968 7.96595C62.1262 8.09536 62.5057 8.20124 62.84 8.20124C63.1743 8.20124 63.5537 8.09536 63.6831 7.96595C63.9498 7.69928 63.9882 7.04615 63.7586 6.68458C63.5427 6.34477 62.5153 6.19536 62.1047 6.44418ZM97.6439 6.46399C97.6439 6.58693 97.7984 6.80026 97.987 6.9383C98.2931 7.16203 98.3302 7.59418 98.3302 10.9461C98.3302 14.2979 98.2931 14.7303 97.987 14.9542C97.3478 15.422 97.6394 15.5542 99.3106 15.5542C100.227 15.5542 100.977 15.4881 100.977 15.4071C100.977 15.3261 100.801 15.0836 100.585 14.8679C100.218 14.5007 100.193 14.2144 100.193 10.3581V6.24046H98.9184C98.0953 6.24046 97.6439 6.31968 97.6439 6.46399ZM106.075 6.51163C106.075 6.66085 106.252 6.82909 106.467 6.88556C106.843 6.98379 106.86 7.15301 106.86 10.9463C106.86 14.7397 106.843 14.9089 106.467 15.0071C106.252 15.0636 106.075 15.2097 106.075 15.332C106.075 15.4801 106.631 15.5542 107.742 15.5542C108.861 15.5542 109.409 15.4807 109.409 15.3301C109.409 15.2067 109.276 15.0552 109.114 14.993C108.878 14.9024 108.82 14.4632 108.82 12.7548C108.82 10.4016 109.007 9.88281 109.812 9.99634C110.287 10.0634 110.291 10.0852 110.346 12.4699C110.392 14.4834 110.352 14.8944 110.101 14.9909C109.936 15.0542 109.801 15.2067 109.801 15.3301C109.801 15.4807 110.348 15.5542 111.467 15.5542C113.156 15.5542 113.495 15.3838 112.742 14.9134C112.387 14.6918 112.35 14.4561 112.35 12.4416C112.35 10.4858 112.3 10.152 111.943 9.6983C111.607 9.27085 111.378 9.18163 110.614 9.18163C110.097 9.18163 109.501 9.31556 109.256 9.48693L108.82 9.79203V8.01634V6.24046H107.448C106.41 6.24046 106.075 6.30654 106.075 6.51163ZM27.9 7.35477C26.1761 11.9469 25.0364 14.6193 24.7068 14.8428C23.9786 15.3371 24.2466 15.5542 25.5851 15.5542C26.4739 15.5542 26.8596 15.4801 26.8596 15.3091C26.8596 15.1744 26.689 15.064 26.4806 15.064C25.921 15.064 25.8078 14.3997 26.1776 13.2865L26.5049 12.3012L27.6955 12.3591L28.8861 12.4169L29.2302 13.3973C29.6947 14.7209 29.691 15.064 29.2125 15.064C28.9968 15.064 28.8204 15.1744 28.8204 15.3091C28.8204 15.4889 29.3433 15.5542 30.7811 15.5542C31.8596 15.5542 32.7419 15.4801 32.7419 15.3895C32.7419 15.2989 32.5676 15.0783 32.3543 14.8993C32.1412 14.7203 31.3227 12.8973 30.5355 10.8483C29.1923 7.35222 29.0711 7.11889 28.569 7.06066C28.1941 7.01713 27.9937 7.10517 27.9 7.35477ZM74.3106 7.17438C74.3106 7.25654 74.509 7.41105 74.7517 7.51752C75.1802 7.70536 75.1945 7.80477 75.249 10.9463C75.3123 14.6167 75.2527 15.064 74.699 15.064C74.4853 15.064 74.3106 15.1744 74.3106 15.3091C74.3106 15.4889 74.8335 15.5542 76.2713 15.5542C77.7092 15.5542 78.2321 15.4889 78.2321 15.3091C78.2321 15.1744 78.0976 15.064 77.9331 15.064C77.4998 15.064 77.2517 14.2385 77.2517 12.7963V11.5346H78.7223H80.1929V13.2197C80.1929 14.7397 80.1545 14.9146 79.8008 15.0071C79.5851 15.0636 79.4086 15.2097 79.4084 15.332C79.4084 15.482 80.0137 15.5542 81.2708 15.5542C82.5278 15.5542 83.1335 15.4818 83.1337 15.332C83.1339 15.2097 82.9576 15.0636 82.7419 15.0071C82.368 14.9095 82.3498 14.7397 82.3498 11.3585C82.3498 8.02477 82.3733 7.79771 82.7419 7.56752C82.9576 7.43281 83.1341 7.25556 83.1341 7.1736C83.1341 7.09183 82.2959 7.02477 81.2713 7.02477C79.5241 7.02477 78.9057 7.23085 79.8008 7.51497C80.1543 7.62712 80.1929 7.81163 80.1929 9.39085V11.1424H78.7223H77.2517V9.99046C77.2517 8.37163 77.4308 7.64477 77.8633 7.50752C78.7506 7.22595 78.0872 7.02477 76.2713 7.02477C75.1929 7.02477 74.3106 7.09203 74.3106 7.17438ZM34.8008 7.5881C34.2725 7.70026 34.2064 7.79791 34.1523 8.54536C34.099 9.28085 34.0362 9.37771 33.6131 9.37771C33.3496 9.37771 33.1341 9.46595 33.1341 9.57379C33.1341 9.68163 33.3547 9.76987 33.6243 9.76987H34.1145V12.1944C34.1145 14.3503 34.1596 14.6761 34.521 15.1356C35.0464 15.8038 36.4433 15.8724 37.0557 15.2601C37.4559 14.8599 37.5861 14.2797 37.2757 14.2797C37.1812 14.2797 36.9939 14.412 36.8596 14.5738C36.7253 14.7356 36.4939 14.8679 36.3455 14.8679C36.1298 14.8679 36.0753 14.3532 36.0753 12.3189V9.76987H36.7615C37.139 9.76987 37.4478 9.68163 37.4478 9.57379C37.4478 9.46595 37.139 9.37771 36.7615 9.37771H36.0753V8.39732C36.0753 7.33634 36.0533 7.32242 34.8008 7.5881ZM58.1341 7.5881C57.6059 7.70026 57.5398 7.79791 57.4857 8.54536C57.4294 9.32222 57.3868 9.37771 56.8484 9.37771C56.531 9.37771 56.2713 9.46595 56.2713 9.57379C56.2713 9.68163 56.5361 9.76987 56.8596 9.76987H57.4478V12.3189C57.4478 14.6065 57.488 14.9081 57.84 15.2601C58.418 15.8381 59.6784 15.7924 60.2998 15.1709C60.5645 14.9061 60.7811 14.5973 60.7811 14.4846C60.7811 14.1697 60.2494 14.2416 60.1219 14.5738C59.9735 14.9607 59.4823 14.9507 59.3315 14.5577C59.2661 14.3871 59.2125 13.2401 59.2125 12.0087V9.76987H59.8988C60.2762 9.76987 60.5851 9.68163 60.5851 9.57379C60.5851 9.46595 60.2762 9.37771 59.8988 9.37771H59.2125V8.39732C59.2125 7.36124 59.2106 7.35967 58.1341 7.5881ZM103.036 7.5881C102.508 7.70026 102.442 7.79791 102.388 8.54536C102.334 9.28085 102.272 9.37771 101.848 9.37771C101.585 9.37771 101.369 9.46595 101.369 9.57379C101.369 9.68163 101.583 9.76987 101.844 9.76987H102.319L102.384 12.4332C102.457 15.4646 102.552 15.6522 104.02 15.6522C104.833 15.6522 105.683 15.0691 105.683 14.5122C105.683 14.1903 105.387 14.2212 105.095 14.5738C104.961 14.7356 104.729 14.8679 104.581 14.8679C104.365 14.8679 104.311 14.3532 104.311 12.3189V9.76987H104.997C105.374 9.76987 105.683 9.68163 105.683 9.57379C105.683 9.46595 105.374 9.37771 104.997 9.37771H104.311V8.39732C104.311 7.33634 104.289 7.32242 103.036 7.5881ZM20.1929 10.7387C20.1929 12.5534 20.1231 13.3212 19.9478 13.4348C19.8131 13.522 18.3792 13.6375 16.7615 13.6914L13.8204 13.7895L13.7659 16.7171C13.7333 18.4681 13.6251 19.7487 13.4968 19.9034C13.3402 20.092 12.6253 20.162 10.8553 20.162H8.42821V20.6312C8.42821 20.8893 8.56781 21.154 8.7384 21.2195C8.90899 21.285 10.2262 21.3385 11.6655 21.3385C13.7831 21.3385 14.3413 21.2797 14.5908 21.0305C14.8431 20.7779 14.8988 20.1965 14.8988 17.8161C14.8988 15.3469 14.9455 14.892 15.209 14.7908C15.3796 14.7254 16.7819 14.6718 18.3253 14.6718C20.7031 14.6718 21.1496 14.6246 21.2504 14.3616C21.3159 14.191 21.3694 12.841 21.3694 11.3616C21.3694 8.58458 21.2696 8.20124 20.5459 8.20124C20.2241 8.20124 20.1929 8.42595 20.1929 10.7387ZM43.3906 9.37968C43.1543 9.47477 42.8109 9.78163 42.6274 10.0614C42.3562 10.4754 42.3362 10.6624 42.5194 11.0648C42.7019 11.4654 42.8617 11.5475 43.3608 11.4979C44.1839 11.4159 44.4694 10.9432 44.1719 10.1552C43.9502 9.56771 43.9588 9.55203 44.4666 9.61105C45.0821 9.68262 45.4188 10.4107 45.2139 11.2269C45.1121 11.6322 44.8266 11.8709 44.0137 12.2305C42.5602 12.8732 42.1537 13.3187 42.1537 14.2685C42.1537 14.8454 42.2645 15.1193 42.5896 15.3469C43.1376 15.7308 44.0468 15.7361 44.7686 15.3597C45.2598 15.1036 45.3588 15.1038 45.616 15.361C45.9831 15.7281 47.0031 15.7254 47.6439 15.3554L48.1341 15.0724L47.6929 14.9473C47.2768 14.8293 47.2517 14.7203 47.2506 13.0312C47.2494 10.9263 47.007 9.89536 46.4162 9.48144C45.9455 9.15183 44.1096 9.09007 43.3906 9.37968ZM49.4576 9.32516C48.578 9.40438 48.358 9.65458 49.0164 9.82673C49.3825 9.92242 49.4086 10.0942 49.4086 12.4169C49.4086 14.7397 49.3825 14.9114 49.0164 15.0071C48.8008 15.0636 48.6243 15.2097 48.6243 15.332C48.6243 15.4801 49.1798 15.5542 50.291 15.5542C51.4104 15.5542 51.9576 15.4807 51.9576 15.3301C51.9576 15.2067 51.8253 15.0552 51.6635 14.993C51.4268 14.9022 51.3694 14.4607 51.3694 12.7312C51.3694 10.4475 51.5435 9.96595 52.3686 9.96595C52.9255 9.96595 53.1341 10.7177 53.1341 12.7238C53.1341 14.2144 53.0757 14.5342 52.7419 14.8679C52.5262 15.0836 52.3498 15.3261 52.3498 15.4071C52.3498 15.4881 53.0998 15.5542 54.0164 15.5542C55.6872 15.5542 55.9798 15.4216 55.34 14.955C55.0549 14.7469 54.9802 14.2879 54.8988 12.2454C54.8125 10.082 54.7537 9.75085 54.4086 9.49026C53.8933 9.10124 52.3586 9.09909 51.8053 9.48693C51.4108 9.7632 51.3694 9.7632 51.3694 9.48693C51.3694 9.1734 51.2531 9.1634 49.4576 9.32516ZM62.0066 9.32516C61.5484 9.36654 61.1733 9.4834 61.1733 9.58497C61.1733 9.68673 61.2962 9.76987 61.4464 9.76987C61.8692 9.76987 61.9576 10.2281 61.9576 12.4169C61.9576 14.6058 61.8692 15.064 61.4464 15.064C61.2962 15.064 61.1733 15.1744 61.1733 15.3091C61.1733 15.4869 61.657 15.5542 62.938 15.5542C64.1221 15.5542 64.7027 15.481 64.7027 15.332C64.7027 15.2097 64.5262 15.0636 64.3106 15.0071C63.941 14.9105 63.9184 14.7397 63.9184 12.0432V9.18163L63.3792 9.21595C63.0827 9.23477 62.4649 9.28399 62.0066 9.32516ZM66.5586 9.3683C65.9406 9.61869 65.6439 10.0895 65.6439 10.8201C65.6439 11.6238 66.0251 12.2185 67.0447 13.0052C68.1994 13.8961 68.4957 14.8458 67.7125 15.1461C67.1008 15.381 66.0753 14.2918 66.0753 13.4071C66.0753 13.2399 65.9429 13.1032 65.7811 13.1032C65.55 13.1032 65.487 13.3756 65.487 14.3777C65.487 15.3465 65.5537 15.6522 65.7649 15.6522C65.9176 15.6522 66.0762 15.5512 66.1172 15.4281C66.1721 15.2634 66.3141 15.2691 66.6519 15.4501C67.289 15.7908 69.1013 15.6175 69.5978 15.1683C70.1498 14.6687 70.2953 13.6738 69.9219 12.9518C69.7539 12.6267 69.1815 12.0418 68.6504 11.6518C67.3886 10.7256 67.0559 9.92065 67.8325 9.67418C68.4043 9.49281 68.9596 9.87889 69.2392 10.6524C69.6259 11.7214 69.9968 11.5295 69.9968 10.2601C69.9968 9.43222 69.9286 9.18163 69.7027 9.18163C69.541 9.18163 69.4086 9.27301 69.4086 9.38458C69.4086 9.52458 69.2908 9.52458 69.0294 9.38458C68.5839 9.14615 67.1302 9.13654 66.5586 9.3683ZM86.2713 9.31968C84.2192 10.0663 83.936 14.3532 85.8727 15.3548C86.6337 15.7483 88.1198 15.7348 88.7392 15.3291C89.1637 15.0508 89.8008 14.1328 89.8008 13.7993C89.8008 13.5644 89.37 13.712 88.9713 14.0836C88.0986 14.8965 86.8466 14.3616 86.5872 13.0652C86.3566 11.9116 86.3362 11.9267 88.1341 11.9267H89.8008V11.3256C89.8008 9.97614 88.9613 9.18536 87.5459 9.20144C87.0066 9.20752 86.4331 9.26085 86.2713 9.31968ZM92.3498 9.32066C91.4653 9.64595 91.0512 10.7457 91.6047 11.2993C91.9398 11.6344 92.6584 11.5903 93.0372 11.2112C93.3474 10.9012 93.3474 10.6701 93.0372 9.91693C92.9319 9.66065 92.9908 9.57379 93.27 9.57379C93.8323 9.57379 94.1149 9.96556 94.1115 10.7405C94.1076 11.6575 93.9968 11.7936 92.8423 12.3007C91.4986 12.8909 90.9772 13.4222 90.9772 14.2016C90.9772 15.4434 92.6976 16.1081 93.7562 15.2754C94.2288 14.9036 94.2386 14.9036 94.4708 15.2754C94.7308 15.6918 95.54 15.7714 96.3566 15.461C96.9541 15.2338 97.0225 14.8679 96.4674 14.8679C96.0992 14.8679 96.0753 14.7371 96.0753 12.7203C96.0753 10.3865 95.8957 9.73359 95.1621 9.39928C94.6731 9.17653 92.8782 9.12634 92.3498 9.32066ZM28.5137 11.4856C28.6433 11.903 28.5972 11.9267 27.66 11.9267H26.6692L27.0274 10.9954C27.2245 10.483 27.4519 9.88752 27.5327 9.67183C27.6574 9.33869 27.7319 9.41242 28.0282 10.162C28.22 10.6473 28.4384 11.2428 28.5137 11.4856ZM87.8055 9.91693C87.9019 10.1056 88.0351 10.5467 88.1015 10.8973L88.2223 11.5346H87.3411C86.4802 11.5346 86.4629 11.5222 86.5851 10.9954C86.7392 10.3307 87.1974 9.57379 87.4455 9.57379C87.547 9.57379 87.709 9.7283 87.8055 9.91693ZM45.0817 14.3936C44.7592 14.7822 44.361 14.7403 44.1213 14.2926C43.8176 13.7252 43.861 13.5746 44.5557 12.7812L45.1929 12.0536L45.2527 13.0846C45.287 13.6758 45.2141 14.234 45.0817 14.3936ZM93.8672 14.415C93.4512 14.831 92.938 14.5232 92.938 13.8577C92.938 13.4883 93.1317 13.091 93.4772 12.7512L94.0164 12.2209L94.0774 13.1822C94.1172 13.8103 94.0443 14.2377 93.8672 14.415Z" fill="#A6A6A6"/>
</svg>
