<svg width="48" height="37" viewBox="0 0 48 37" fill="none" xmlns="http://www.w3.org/2000/svg">
<path d="M45.1875 28.3669V23.9062C45.1875 19.2761 43.6945 14.8752 40.87 11.1794C38.3629 7.89881 34.8964 5.38284 31.026 4.01288C30.9183 1.78191 29.0697 0 26.8125 0H21.1875C18.9303 0 17.0817 1.78191 16.974 4.01288C13.1036 5.38284 9.63713 7.89881 7.12997 11.1794C4.30547 14.8752 2.8125 19.2761 2.8125 23.9062V28.3669C1.17572 28.9474 0 30.5105 0 32.3438C0 34.67 1.89253 36.5625 4.21875 36.5625H43.7812C46.1075 36.5625 48 34.67 48 32.3438C48 30.5105 46.8243 28.9474 45.1875 28.3669ZM5.625 23.9062C5.625 18.8352 7.79119 14.088 11.3438 10.7011V15.4688C11.3438 16.2454 11.9734 16.875 12.75 16.875C13.5266 16.875 14.1562 16.2454 14.1562 15.4688V8.49534C15.0424 7.92966 15.9822 7.43616 16.9688 7.02544V18.2812C16.9688 19.0579 17.5984 19.6875 18.375 19.6875C19.1516 19.6875 19.7812 19.0579 19.7812 18.2812V5.05612C19.7813 5.05228 19.7812 5.04844 19.7812 5.04459V4.21875C19.7812 3.44334 20.4121 2.8125 21.1875 2.8125H26.8125C27.5879 2.8125 28.2188 3.44334 28.2188 4.21875V5.04422C28.2188 5.04825 28.2187 5.05219 28.2188 5.05622V18.2812C28.2188 19.0579 28.8484 19.6875 29.625 19.6875C30.4016 19.6875 31.0312 19.0579 31.0312 18.2812V7.02544C32.0178 7.43625 32.9576 7.92975 33.8438 8.49534V15.4688C33.8438 16.2454 34.4734 16.875 35.25 16.875C36.0266 16.875 36.6562 16.2454 36.6562 15.4688V10.7011C40.2088 14.088 42.375 18.8352 42.375 23.9062V28.125H5.625V23.9062ZM43.7812 33.75H4.21875C3.44334 33.75 2.8125 33.1192 2.8125 32.3438C2.8125 31.5683 3.44334 30.9375 4.21875 30.9375H43.7812C44.5567 30.9375 45.1875 31.5683 45.1875 32.3438C45.1875 33.1192 44.5567 33.75 43.7812 33.75Z" fill="#FF5A30"/>
</svg>
